<?xml version="1.0" encoding="utf-8"?>
<!-- Generator: Adobe Illustrator 16.0.0, SVG Export Plug-In . SVG Version: 6.00 Build 0)  -->
<!DOCTYPE svg PUBLIC "-//W3C//DTD SVG 1.1//EN" "http://www.w3.org/Graphics/SVG/1.1/DTD/svg11.dtd">
<svg version="1.1" id="Layer_1" xmlns="http://www.w3.org/2000/svg" xmlns:xlink="http://www.w3.org/1999/xlink" x="0px" y="0px"
	 width="138px" height="100px" viewBox="0 0 238 200" enable-background="new 0 0 238 200" xml:space="preserve">
<g>
	<path fill="#FFFFFF" d="M52.412,20.568c-9.131,0-13.693,4.196-13.693,12.589v47.924c0,10.308-4.858,16.343-14.576,18.11
		c9.718,1.621,14.576,7.584,14.576,17.889v51.899c0,3.827,1.066,6.478,3.203,7.95c2.132,1.471,6.218,2.209,12.257,2.209v20.539
		h-7.509c-20.025,0-30.036-9.718-30.036-29.152v-47.703c0-4.859-0.883-8.282-2.65-10.27c-1.767-1.988-4.565-2.981-8.393-2.981h-5.3
		V89.032h5.3c3.827,0,6.625-1.028,8.393-3.092c1.767-2.061,2.65-5.594,2.65-10.602V29.402c0-19.435,10.011-29.152,30.036-29.152
		h7.509v20.539C53.737,20.645,53.146,20.568,52.412,20.568z"/>
</g>
<g>
	<path fill="#FFFFFF" d="M191.294,199.678h-7.508v-20.539c6.035,0,10.121-0.738,12.256-2.209c2.133-1.473,3.203-4.123,3.203-7.95
		V117.08c0-10.305,4.858-16.268,14.576-17.889c-9.718-1.768-14.576-7.803-14.576-18.11V33.157c0-4.562-1.215-7.841-3.645-9.828
		s-4.824-2.981-7.178-2.981h-0.662l-3.975,0.441V0.25h7.508c20.021,0,30.036,9.718,30.036,29.152v45.937
		c0,5.008,0.884,8.541,2.649,10.602c1.768,2.063,4.562,3.092,8.393,3.092h5.301v20.539h-5.301c-3.83,0-6.625,0.993-8.393,2.981
		c-1.766,1.987-2.649,5.41-2.649,10.27v47.703C221.33,189.96,211.315,199.678,191.294,199.678z"/>
</g>
<g>
	<path fill="#FFFFFF" d="M111.56,114.301L84.397,46.773h14.724L119.684,97.8l20.563-51.026h14.724l-27.163,67.527H111.56z"/>
</g>
<g>
</g>
<g>
</g>
<g>
</g>
<g>
</g>
<g>
</g>
<g>
</g>
<g>
</g>
<g>
</g>
<g>
</g>
<g>
</g>
<g>
</g>
<g>
</g>
<g>
</g>
<g>
</g>
<g>
</g>
</svg>
