<?xml version="1.0" encoding="utf-8"?>
<!-- Generator: Adobe Illustrator 16.0.0, SVG Export Plug-In . SVG Version: 6.00 Build 0)  -->
<!DOCTYPE svg PUBLIC "-//W3C//DTD SVG 1.1//EN" "http://www.w3.org/Graphics/SVG/1.1/DTD/svg11.dtd">
<svg version="1.1" id="Layer_1" xmlns="http://www.w3.org/2000/svg" xmlns:xlink="http://www.w3.org/1999/xlink" x="0px" y="0px"
	 width="48px" height="40px" viewBox="0 0 48 40" enable-background="new 0 0 48 40" xml:space="preserve">
<g>
	<path fill="#CCCCCC" d="M10.708,4.07c-1.83,0-2.743,0.84-2.743,2.521v9.601c0,2.065-0.973,3.274-2.92,3.628
		c1.947,0.325,2.92,1.519,2.92,3.583V33.8c0,0.769,0.213,1.298,0.642,1.593c0.427,0.297,1.246,0.443,2.455,0.443v4.114H9.558
		c-4.011,0-6.017-1.947-6.017-5.839v-9.559c0-0.973-0.177-1.658-0.531-2.057S2.095,21.9,1.329,21.9H0.268v-4.115H1.33
		c0.766,0,1.327-0.206,1.681-0.62c0.354-0.412,0.531-1.12,0.531-2.123V5.84C3.541,1.947,5.547,0,9.558,0h1.504v4.115
		C10.974,4.085,10.856,4.07,10.708,4.07z"/>
</g>
<g>
	<path fill="#CCCCCC" d="M38.529,39.951h-1.504v-4.114c1.209,0,2.027-0.147,2.455-0.442c0.429-0.295,0.642-0.826,0.642-1.594V23.404
		c0-2.064,0.976-3.259,2.922-3.583c-1.946-0.354-2.922-1.563-2.922-3.628V6.592c0-0.914-0.242-1.57-0.729-1.968
		c-0.486-0.398-0.967-0.598-1.438-0.598h-0.132l-0.798,0.089V0h1.504c4.012,0,6.018,1.947,6.018,5.84v9.203
		c0,1.003,0.178,1.711,0.532,2.123c0.354,0.414,0.913,0.62,1.68,0.62h1.062V21.9h-1.062c-0.767,0-1.325,0.199-1.68,0.597
		s-0.532,1.084-0.532,2.058v9.557C44.547,38.003,42.541,39.951,38.529,39.951z"/>
</g>
<g>
	<path fill="#CCCCCC" d="M22.557,22.848L17.116,9.32h2.95l4.119,10.222l4.12-10.222h2.948l-5.44,13.528H22.557z"/>
</g>
</svg>
