<?xml version="1.0" encoding="utf-8"?>
<!-- Generator: Adobe Illustrator 16.0.0, SVG Export Plug-In . SVG Version: 6.00 Build 0)  -->
<!DOCTYPE svg PUBLIC "-//W3C//DTD SVG 1.1//EN" "http://www.w3.org/Graphics/SVG/1.1/DTD/svg11.dtd">
<svg version="1.1" id="Layer_1" xmlns="http://www.w3.org/2000/svg" xmlns:xlink="http://www.w3.org/1999/xlink" x="0px" y="0px"
	 width="22px" height="22.02px" viewBox="0 0 22 22.02" enable-background="new 0 0 22 22.02" xml:space="preserve">
<path fill="#999999" d="M3.382,0.027c-0.547,0.08-1.204,0.337-1.669,0.657c-0.305,0.202-0.7,0.58-0.926,0.877
	C0.534,1.895,0.225,2.538,0.104,2.979L0,3.346v15.312l0.104,0.367c0.121,0.441,0.43,1.085,0.683,1.418
	c0.478,0.626,1.212,1.15,1.951,1.39C3.347,22.028,3.042,22.02,11,22.02c7.962,0,7.655,0.008,8.263-0.189
	c0.742-0.241,1.476-0.761,1.949-1.387c0.256-0.337,0.568-0.979,0.688-1.418l0.1-0.367V3.346l-0.105-0.367
	c-0.118-0.44-0.427-1.084-0.683-1.418c-0.226-0.297-0.62-0.676-0.924-0.877c-0.326-0.225-0.859-0.466-1.271-0.581l-0.362-0.099
	L11.129,0C6.989-0.003,3.5,0.009,3.384,0.026L3.382,0.027z M13.644,4.078c1.159,0.191,1.953,0.572,2.473,1.189
	c0.218,0.261,0.475,0.78,0.584,1.166c0.066,0.252,0.077,0.396,0.079,1.027c0.004,0.665-0.003,0.764-0.079,1.026
	c-0.225,0.777-0.715,1.376-1.503,1.84l-0.271,0.156l0.194,0.063c0.296,0.099,0.793,0.356,1.046,0.548
	c0.633,0.477,1.073,1.218,1.249,2.103c0.084,0.441,0.084,1.385-0.004,1.79c-0.349,1.59-1.58,2.694-3.431,3.065
	c-0.709,0.144-0.892,0.15-4.698,0.15H5.564V3.986l3.849,0.016C12.859,4.011,13.297,4.02,13.644,4.078L13.644,4.078z M8.722,8.087
	v1.675l1.775-0.015c1.664-0.019,1.788-0.023,2.056-0.097c0.839-0.227,1.201-0.708,1.201-1.589c0-0.676-0.239-1.113-0.757-1.37
	c-0.458-0.228-0.955-0.276-2.904-0.279H8.724v1.675H8.722z M8.722,13.832v1.951l1.94-0.017c2.178-0.016,2.25-0.022,2.787-0.281
	c0.618-0.302,0.893-0.795,0.893-1.6c0-1.033-0.411-1.608-1.359-1.895c-0.268-0.084-0.318-0.084-2.265-0.099L8.722,11.88V13.832
	L8.722,13.832z"/>
</svg>
