<?xml version="1.0" encoding="utf-8"?>
<!-- Generator: Adobe Illustrator 16.0.0, SVG Export Plug-In . SVG Version: 6.00 Build 0)  -->
<!DOCTYPE svg PUBLIC "-//W3C//DTD SVG 1.1//EN" "http://www.w3.org/Graphics/SVG/1.1/DTD/svg11.dtd">
<svg version="1.1" id="Layer_1" xmlns="http://www.w3.org/2000/svg" xmlns:xlink="http://www.w3.org/1999/xlink" x="0px" y="0px"
	 width="21.979px" height="24.926px" viewBox="0 0 21.979 24.926" enable-background="new 0 0 21.979 24.926" xml:space="preserve">
<path fill="#999999" d="M0,0l2,22.435l8.974,2.491l9.002-2.495l2.002-22.43L0,0L0,0z M17.822,5.13l-0.676,7.582l0,0l-0.469,5.231
	l-0.041,0.467l-5.645,1.564L5.357,18.41l-0.386-4.321h2.762l0.197,2.195l3.067,0.825l0.009-0.002h0.002l3.059-0.825l0.32-3.569
	H7.964L7.91,12.095L7.784,10.7L7.719,9.962h6.912l0.253-2.817H4.353l-0.055-0.62L4.174,5.13L4.108,4.394h13.78L17.822,5.13
	L17.822,5.13L17.822,5.13z"/>
</svg>
