<?xml version="1.0" encoding="utf-8"?>
<!-- Generator: Adobe Illustrator 16.0.0, SVG Export Plug-In . SVG Version: 6.00 Build 0)  -->
<!DOCTYPE svg PUBLIC "-//W3C//DTD SVG 1.1//EN" "http://www.w3.org/Graphics/SVG/1.1/DTD/svg11.dtd">
<svg version="1.1" id="Layer_1" xmlns="http://www.w3.org/2000/svg" xmlns:xlink="http://www.w3.org/1999/xlink" x="0px" y="0px"
	 width="32.5px" height="30px" viewBox="239.75 241 32.5 30" enable-background="new 239.75 241 32.5 30" xml:space="preserve">
<g>
	<rect x="243.5" y="244.75" fill="#999999" width="2.5" height="1.25"/>
	<rect x="239.75" y="252.25" fill="#999999" width="32.5" height="18.75"/>
	<rect x="266" y="244.75" fill="#999999" width="2.5" height="1.25"/>
	<path fill="#999999" d="M268.5,246v2.5H266V246h-3.75v-2.336V243.5c-0.039-1.422-1.062-2.5-2.516-2.5h-7.742
		c-1.453,0-2.242,1.07-2.242,2.5v0.164V246H246v2.5h-2.5V246h-3.75v5h32.5v-5H268.5z M261,245.961V246h-10v-0.039v-2.297
		c0-0.797,0.227-1.414,1.07-1.414h7.586c0.812,0,1.344,0.602,1.344,1.414V245.961z"/>
</g>
</svg>
