<?xml version="1.0" encoding="utf-8"?>
<!-- Generator: Adobe Illustrator 16.0.0, SVG Export Plug-In . SVG Version: 6.00 Build 0)  -->
<!DOCTYPE svg PUBLIC "-//W3C//DTD SVG 1.1//EN" "http://www.w3.org/Graphics/SVG/1.1/DTD/svg11.dtd">
<svg version="1.1" id="Layer_1" xmlns="http://www.w3.org/2000/svg" xmlns:xlink="http://www.w3.org/1999/xlink" x="0px" y="0px"
	 width="25px" height="25px" viewBox="243.5 243.5 25 25" enable-background="new 243.5 243.5 25 25" xml:space="preserve">
<path fill="#999999" d="M256,243.5c-6.903,0-12.5,5.742-12.5,12.818c0,5.665,3.583,10.463,8.549,12.16
	c0.078,0.017,0.145,0.022,0.212,0.022c0.463,0,0.642-0.341,0.642-0.636c0-0.308-0.011-1.111-0.017-2.183
	c-0.469,0.106-0.887,0.151-1.261,0.151c-2.405,0-2.952-1.87-2.952-1.87c-0.569-1.479-1.389-1.875-1.389-1.875
	c-1.088-0.765-0.006-0.786,0.078-0.786c0.005,0,0.005,0,0.005,0c1.255,0.111,1.914,1.328,1.914,1.328
	c0.625,1.094,1.462,1.4,2.21,1.4c0.586,0,1.116-0.189,1.428-0.335c0.112-0.826,0.436-1.39,0.792-1.713
	c-2.773-0.324-5.692-1.423-5.692-6.334c0-1.401,0.485-2.544,1.284-3.438c-0.128-0.324-0.558-1.629,0.123-3.393
	c0,0,0.089-0.028,0.279-0.028c0.452,0,1.473,0.173,3.158,1.345c0.999-0.285,2.065-0.424,3.131-0.43
	c1.06,0.005,2.131,0.145,3.13,0.43c1.686-1.172,2.706-1.345,3.158-1.345c0.19,0,0.279,0.028,0.279,0.028
	c0.681,1.764,0.251,3.069,0.123,3.393c0.798,0.898,1.283,2.042,1.283,3.438c0,4.922-2.924,6.005-5.709,6.322
	c0.446,0.396,0.849,1.178,0.849,2.372c0,1.713-0.017,3.097-0.017,3.516c0,0.301,0.173,0.642,0.636,0.642
	c0.067,0,0.146-0.006,0.224-0.022c4.972-1.696,8.549-6.501,8.549-12.16C268.5,249.242,262.903,243.5,256,243.5z"/>
</svg>
