<?xml version="1.0" encoding="utf-8"?>
<!-- Generator: Adobe Illustrator 16.0.0, SVG Export Plug-In . SVG Version: 6.00 Build 0)  -->
<!DOCTYPE svg PUBLIC "-//W3C//DTD SVG 1.1//EN" "http://www.w3.org/Graphics/SVG/1.1/DTD/svg11.dtd">
<svg version="1.1" id="Layer_1" xmlns="http://www.w3.org/2000/svg" xmlns:xlink="http://www.w3.org/1999/xlink" x="0px" y="0px"
	 width="22.001px" height="21.542px" viewBox="0 0 22.001 21.542" enable-background="new 0 0 22.001 21.542" xml:space="preserve">
<g>
	<path fill="#999999" d="M14.883,6.902c0.555,0,1.006-0.448,1.006-0.999c0-0.55-0.451-1-1.006-1c-0.554,0-1.008,0.449-1.008,1
		C13.874,6.458,14.323,6.902,14.883,6.902z"/>
	<path fill="#999999" d="M13.896,7.777h1.95v7.326h-1.95V7.777z"/>
	<path fill="#999999" d="M7.699,12.646h2.636l0.711,2.453h1.996l-2.897-9.623H7.724v0.949l-2.541,8.674h1.805L7.699,12.646z
		 M9.005,7.187l0.975,3.775H8.033L9.005,7.187z"/>
	<path fill="#999999" d="M0,0v21.542h22.001V0H0z M20.35,19.846H1.681V1.694H20.35V19.846z"/>
</g>
</svg>
