<?xml version="1.0" encoding="utf-8"?>
<!-- Generator: Adobe Illustrator 16.0.0, SVG Export Plug-In . SVG Version: 6.00 Build 0)  -->
<!DOCTYPE svg PUBLIC "-//W3C//DTD SVG 1.1//EN" "http://www.w3.org/Graphics/SVG/1.1/DTD/svg11.dtd">
<svg version="1.1" id="Layer_1" xmlns="http://www.w3.org/2000/svg" xmlns:xlink="http://www.w3.org/1999/xlink" x="0px" y="0px"
	 width="103.182px" height="103.182px" viewBox="0 0 103.182 103.182" enable-background="new 0 0 103.182 103.182"
	 xml:space="preserve">
<circle fill="none" stroke="#999999" stroke-width="3" stroke-miterlimit="10" cx="51.59" cy="51.591" r="50.091"/>
<g>
	<g>
		<g>
			<path fill="#999999" d="M95.372,74.51c-24.359,0-48.719,0-73.078,0c0.451,0.784,0.9,1.57,1.352,2.355
				c9.792-19.408,19.583-38.817,29.375-58.226c-0.9,0-1.802,0-2.703,0c3.161,6.456,6.323,12.912,9.482,19.369
				c0.888,1.812,3.588,0.226,2.704-1.58c-3.161-6.457-6.322-12.913-9.483-19.369c-0.506-1.031-2.191-1.013-2.704,0
				c-9.791,19.408-19.582,38.816-29.375,58.226c-0.525,1.04,0.109,2.355,1.353,2.355c24.359,0,48.719,0,73.078,0
				C97.392,77.641,97.392,74.51,95.372,74.51L95.372,74.51z"/>
		</g>
	</g>
	<g>
		<g>
			<path fill="#999999" d="M85.917,65.31c-6.241-12.728-12.48-25.455-18.721-38.183c-0.505-1.03-2.192-1.012-2.702,0
				C58.072,39.854,51.65,52.582,45.229,65.31c-0.525,1.041,0.11,2.355,1.352,2.355c12.662,0,25.322,0,37.984,0
				c2.02,0,2.02-3.13,0-3.13c-12.662,0-25.322,0-37.984,0c0.451,0.785,0.9,1.57,1.352,2.356
				c6.421-12.729,12.843-25.457,19.264-38.185c-0.9,0-1.802,0-2.702,0c6.24,12.729,12.48,25.455,18.721,38.185
				C84.103,68.703,86.803,67.115,85.917,65.31z"/>
		</g>
	</g>
</g>
</svg>
