<?xml version="1.0" encoding="utf-8"?>
<!-- Generator: Adobe Illustrator 16.0.0, SVG Export Plug-In . SVG Version: 6.00 Build 0)  -->
<!DOCTYPE svg PUBLIC "-//W3C//DTD SVG 1.1//EN" "http://www.w3.org/Graphics/SVG/1.1/DTD/svg11.dtd">
<svg version="1.1" id="Layer_1" xmlns="http://www.w3.org/2000/svg" xmlns:xlink="http://www.w3.org/1999/xlink" x="0px" y="0px"
	 width="101.531px" height="103px" viewBox="0 0 101.531 103" enable-background="new 0 0 101.531 103" xml:space="preserve">
<ellipse fill="none" stroke="#999999" stroke-width="3" stroke-miterlimit="10" cx="50.766" cy="51.5" rx="49.265" ry="50"/>
<g>
	<g>
		<path fill="#999999" d="M100.01,47.32c-4.784,0-9.568,0-14.354,0c-1.532,0-2.102,2.125-0.777,2.911
			c4.893,2.899-3.631,6.586-5.574,7.512c-3.012,1.438-6.021,2.873-9.033,4.31c-5.61,2.676-11.223,5.344-16.854,7.973
			c-8.685,4.053-17.208,8.32-27.043,7.913c-2.993-0.123-7.157-0.793-8.391-4.06c-1.122-2.967,1.751-4.703,3.999-5.631
			c3.959-1.635,5.976-3.814,8.806-6.939c-0.623,0.082-1.244,0.163-1.866,0.245c1.603,1.132,4.937,3.57,6.788,1.691
			c2.031-2.061-1.386-5.398-2.757-6.716c0.08,0.631,0.16,1.263,0.24,1.893c0.201-0.278,0.402-0.555,0.603-0.832
			c-0.702,0.187-1.405,0.373-2.106,0.56c1.477,0.951,5.54,3.708,6.942,1.277c1.276-2.211-1.768-5.021-3.126-6.418
			c0.081,0.632,0.161,1.263,0.24,1.893c0.154-0.238,0.309-0.477,0.463-0.716c-0.703,0.188-1.405,0.375-2.107,0.561
			c1.667,1.019,5.798,3.562,7.282,0.994c1.496-2.595-2.185-5.266-3.931-6.503c0.185,0.712,0.369,1.425,0.552,2.137
			c0.167-0.276,0.334-0.55,0.5-0.826c-0.702,0.187-1.405,0.375-2.106,0.56c1.708,0.865,5.994,3.221,7.411,0.764
			c1.384-2.397-2.09-5.142-3.644-6.427c0.08,0.632,0.161,1.262,0.24,1.893c0.16-0.274,0.321-0.551,0.48-0.825
			c-0.704,0.187-1.404,0.373-2.106,0.561c1.879,0.965,5.47,3.002,7.3,1.044c2.208-2.364-2.474-5.552-4.029-6.625
			c0.184,0.712,0.368,1.425,0.552,2.138c0.802-1.378,1.45-2.829,2.017-4.321c1.246-3.283,4.417-0.626,5.855,1.083
			c2.392,2.841,6.678,2.29,9.709,1.136c3.731-1.419,7.077-4.218,9.173-7.64c0.475-0.773,0.771-1.701,1.042-2.558
			c0.277-0.882,0.65-1.458-0.155-1.835c1.828,0.857,3.403,4.297,4.562,5.884c1.17,1.598,3.844,0.044,2.657-1.577
			c-1.145-1.566-5.122-9.23-8.153-7.134c-1.344,0.928-1.496,2.326-1.881,3.83c-0.807,3.164-3.591,5.429-6.208,7.058
			c-2.461,1.53-6.131,2.844-8.569,0.626c-1.742-1.583-2.902-3.236-5.447-3.48c-5.027-0.485-5.217,3.841-7.263,7.351
			c-0.448,0.77-0.138,1.662,0.553,2.137c0.369,0.255,0.732,0.521,1.084,0.798c0.318,0.253,0.625,0.518,0.926,0.793
			c0.146,0.141,0.294,0.283,0.439,0.425c0.432,0.837,0.817,0.696,1.157-0.421c-1.196,0.06-2.728-0.875-3.769-1.41
			c-0.751-0.387-1.663-0.206-2.107,0.56c-0.16,0.276-0.321,0.551-0.479,0.826c-0.325,0.558-0.288,1.457,0.241,1.893
			c1.021,0.845,2.056,1.763,2.844,2.842c0.754-0.592,0.746-0.896-0.025-0.913c-0.384-0.117-0.764-0.248-1.136-0.396
			c-0.589-0.217-1.159-0.494-1.719-0.777c-0.763-0.387-1.646-0.201-2.106,0.561c-0.167,0.276-0.333,0.551-0.5,0.827
			c-0.464,0.769-0.123,1.659,0.553,2.137c0.361,0.256,0.703,0.531,1.043,0.813c0.305,0.259,0.6,0.53,0.881,0.813
			c0.286,0.588,0.666,0.608,1.139,0.061c-1.157-0.24-2.3-0.961-3.307-1.574c-0.746-0.455-1.652-0.145-2.106,0.561
			c-0.154,0.239-0.308,0.477-0.461,0.715c-0.378,0.587-0.228,1.414,0.24,1.895c0.85,0.873,1.655,1.794,2.325,2.82
			c1.205-0.547,1.361-0.886,0.471-1.017c-0.441-0.188-0.871-0.396-1.29-0.628c-0.544-0.286-1.075-0.61-1.591-0.944
			c-0.764-0.489-1.624-0.104-2.106,0.562c-0.201,0.276-0.402,0.555-0.603,0.831c-0.397,0.549-0.222,1.45,0.241,1.895
			c0.271,0.26,0.53,0.531,0.789,0.802c0.248,0.266,0.49,0.536,0.723,0.815c0.155,0.203,0.31,0.405,0.465,0.607
			c0.254,0.742,0.682,0.686,1.288-0.172c-1.235-0.169-2.558-1.225-3.563-1.936c-0.545-0.387-1.428-0.24-1.865,0.244
			c-1.163,1.283-2.326,2.566-3.487,3.849c-2.013,2.224-5.43,2.487-7.792,4.269c-3.691,2.782-3.145,8.074,0.009,10.958
			c4.939,4.519,14.038,3.217,19.901,1.808c3.871-0.928,7.592-2.619,11.219-4.257c6.613-2.983,13.165-6.108,19.715-9.233
			c3.991-1.902,7.981-3.808,11.972-5.711c0.141-0.065,1.201-0.55,0.505-0.255c0.76-0.322,1.501-0.675,2.239-1.047
			c2.479-1.25,5.255-2.936,6.464-5.572c1.168-2.545-0.838-5.138-2.924-6.375c-0.259,0.972-0.517,1.942-0.775,2.914
			c4.785,0,9.57,0,14.354,0C101.997,50.445,101.997,47.32,100.01,47.32L100.01,47.32z"/>
	</g>
</g>
</svg>
