<?xml version="1.0" encoding="utf-8"?>
<!-- Generator: Adobe Illustrator 16.0.0, SVG Export Plug-In . SVG Version: 6.00 Build 0)  -->
<!DOCTYPE svg PUBLIC "-//W3C//DTD SVG 1.1//EN" "http://www.w3.org/Graphics/SVG/1.1/DTD/svg11.dtd">
<svg version="1.1" id="Layer_1" xmlns="http://www.w3.org/2000/svg" xmlns:xlink="http://www.w3.org/1999/xlink" x="0px" y="0px"
	 width="103.351px" height="103.352px" viewBox="0 0 103.351 103.352" enable-background="new 0 0 103.351 103.352"
	 xml:space="preserve">
<circle fill="none" stroke="#999999" stroke-width="3" stroke-miterlimit="10" cx="51.676" cy="51.676" r="50.176"/>
<g>
	<g>
		<g>
			<g>
				<path fill="#999999" stroke="#999999" stroke-width="0.25" stroke-miterlimit="10" d="M54.773,32.998
					c8.605,0.17,15.924,5.018,19.578,12.784c0.861,1.829,3.564,0.235,2.707-1.583c-4.115-8.748-12.652-14.146-22.285-14.338
					C52.75,29.822,52.753,32.958,54.773,32.998L54.773,32.998z"/>
			</g>
		</g>
		<g>
			<g>
				<path fill="#999999" stroke="#999999" stroke-width="0.25" stroke-miterlimit="10" d="M33.459,54.35
					c0.222-11.812,9.539-21.13,21.351-21.352c2.02-0.038,2.023-3.174,0-3.137C41.28,30.115,30.576,40.818,30.323,54.35
					C30.285,56.373,33.421,56.369,33.459,54.35L33.459,54.35z"/>
			</g>
		</g>
	</g>
	<g>
		<g>
			<path fill="#999999" stroke="#999999" stroke-width="0.25" stroke-miterlimit="10" d="M42.851,21.726
				c14.459,0.192,26.973,9.734,31.26,23.505c0.602,1.925,3.627,1.104,3.025-0.832c-4.705-15.111-18.41-25.598-34.286-25.809
				C40.827,18.562,40.83,21.699,42.851,21.726L42.851,21.726z"/>
		</g>
	</g>
	<g>
		<g>
			<g>
				<path fill="#999999" stroke="#999999" stroke-width="0.25" stroke-miterlimit="10" d="M54.81,75.488
					c-11.812-0.223-21.129-9.539-21.351-21.352c-0.038-2.02-3.174-2.023-3.136,0c0.253,13.53,10.957,24.232,24.487,24.487
					C56.833,78.661,56.83,75.525,54.81,75.488L54.81,75.488z"/>
			</g>
		</g>
		<g>
			<g>
				<path fill="#999999" stroke="#999999" stroke-width="0.25" stroke-miterlimit="10" d="M71.705,67.174
					c-4.273,5.227-10.164,8.17-16.932,8.314c-2.02,0.043-2.023,3.179,0,3.136c7.531-0.16,14.367-3.387,19.148-9.232
					C75.191,67.84,72.986,65.607,71.705,67.174L71.705,67.174z"/>
			</g>
		</g>
	</g>
	<g>
		<g>
			<path fill="#999999" stroke="#999999" stroke-width="0.25" stroke-miterlimit="10" d="M5.454,36.516
				c10.522-9.494,23.945-14.664,38.107-14.79c2.021-0.019,2.022-3.154,0-3.136c-15.007,0.133-29.186,5.657-40.324,15.707
				C1.732,35.655,3.957,37.865,5.454,36.516L5.454,36.516z"/>
		</g>
	</g>
</g>
</svg>
