<?xml version="1.0" encoding="utf-8"?>
<!-- Generator: Adobe Illustrator 16.0.0, SVG Export Plug-In . SVG Version: 6.00 Build 0)  -->
<!DOCTYPE svg PUBLIC "-//W3C//DTD SVG 1.1//EN" "http://www.w3.org/Graphics/SVG/1.1/DTD/svg11.dtd">
<svg version="1.1" id="Layer_1" xmlns="http://www.w3.org/2000/svg" xmlns:xlink="http://www.w3.org/1999/xlink" x="0px" y="0px"
	 width="30px" height="30px" viewBox="241 241 30 30" enable-background="new 241 241 30 30" xml:space="preserve">
<path fill="#999999" d="M256,241c-8.286,0-15,6.714-15,15s6.714,15,15,15s15-6.714,15-15S264.286,241,256,241z M256,242.248
	c7.579,0,13.753,6.166,13.753,13.752c0,3.354-1.205,6.425-3.203,8.812c-1.441-0.591-4.752-1.737-6.698-2.315
	c-0.174-0.05-0.195-0.064-0.195-0.771c0-0.585,0.237-1.177,0.477-1.681c0.259-0.541,0.555-1.457,0.663-2.279
	c0.303-0.353,0.721-1.045,0.98-2.372c0.231-1.168,0.122-1.594-0.029-1.991c-0.014-0.043-0.036-0.086-0.043-0.123
	c-0.058-0.274,0.022-1.695,0.224-2.798c0.138-0.757-0.036-2.365-1.074-3.699c-0.656-0.844-1.919-1.875-4.219-2.02h-1.262
	c-2.265,0.145-3.52,1.176-4.183,2.02c-1.045,1.334-1.219,2.942-1.082,3.699c0.202,1.104,0.281,2.524,0.224,2.798
	c-0.015,0.051-0.029,0.086-0.043,0.13c-0.152,0.396-0.267,0.822-0.029,1.99c0.267,1.327,0.678,2.02,0.981,2.372
	c0.108,0.823,0.411,1.731,0.663,2.279c0.188,0.397,0.274,0.938,0.274,1.702c0,0.714-0.029,0.722-0.188,0.771
	c-2.027,0.599-5.236,1.752-6.52,2.308c-2.012-2.394-3.224-5.474-3.224-8.834C242.248,248.42,248.42,242.248,256,242.248z"/>
</svg>
