<?xml version="1.0" encoding="utf-8"?>
<!-- Generator: Adobe Illustrator 16.0.0, SVG Export Plug-In . SVG Version: 6.00 Build 0)  -->
<!DOCTYPE svg PUBLIC "-//W3C//DTD SVG 1.1//EN" "http://www.w3.org/Graphics/SVG/1.1/DTD/svg11.dtd">
<svg version="1.1" id="Layer_1" xmlns="http://www.w3.org/2000/svg" xmlns:xlink="http://www.w3.org/1999/xlink" x="0px" y="0px"
	 width="21.875px" height="16.657px" viewBox="0 0 21.875 16.657" enable-background="new 0 0 21.875 16.657" xml:space="preserve">
<path fill="#999999" d="M4.764,0.261h3.638v10.198c0,4.594-2.202,6.198-5.721,6.198c-0.861,0-1.962-0.144-2.68-0.383l0.407-2.944
	c0.502,0.168,1.149,0.287,1.866,0.287c1.533,0,2.49-0.694,2.49-3.183V0.261z M11.56,12.661c0.958,0.502,2.489,1.006,4.046,1.006
	c1.676,0,2.561-0.693,2.561-1.771c0-0.98-0.766-1.58-2.704-2.25c-2.681-0.957-4.452-2.44-4.452-4.812C11.01,2.083,13.332,0,17.113,0
	c1.843,0,3.16,0.358,4.116,0.813l-0.812,2.92c-0.624-0.312-1.796-0.767-3.351-0.767c-1.58,0-2.348,0.742-2.348,1.557
	c0,1.028,0.887,1.483,2.993,2.297c2.849,1.053,4.163,2.538,4.163,4.835c0,2.705-2.057,5.002-6.485,5.002
	c-1.843,0-3.661-0.502-4.571-1.005L11.56,12.661L11.56,12.661z"/>
</svg>
