<?xml version="1.0" encoding="utf-8"?>
<!-- Generator: Adobe Illustrator 16.0.0, SVG Export Plug-In . SVG Version: 6.00 Build 0)  -->
<!DOCTYPE svg PUBLIC "-//W3C//DTD SVG 1.1//EN" "http://www.w3.org/Graphics/SVG/1.1/DTD/svg11.dtd">
<svg version="1.1" id="Layer_1" xmlns="http://www.w3.org/2000/svg" xmlns:xlink="http://www.w3.org/1999/xlink" x="0px" y="0px"
	 width="25px" height="25px" viewBox="243.45 243.45 25 25" enable-background="new 243.45 243.45 25 25" xml:space="preserve">
<g>
	<path fill="#999999" d="M266.451,243.45h-20.865c-1.14,0-2.136,0.821-2.136,1.947v20.91c0,1.133,0.997,2.143,2.136,2.143h20.858
		c1.146,0,2.006-1.017,2.006-2.143v-20.91C268.457,244.271,267.591,243.45,266.451,243.45z M251.2,264.289h-3.582v-11.136h3.582
		V264.289z M249.533,251.46h-0.026c-1.146,0-1.889-0.853-1.889-1.921c0-1.088,0.762-1.921,1.934-1.921s1.888,0.827,1.915,1.921
		C251.467,250.607,250.725,251.46,249.533,251.46z M264.289,264.289h-3.582V258.2c0-1.459-0.521-2.455-1.816-2.455
		c-0.989,0-1.575,0.671-1.836,1.322c-0.098,0.234-0.124,0.554-0.124,0.879v6.343h-3.582v-11.136h3.582v1.55
		c0.521-0.742,1.335-1.811,3.229-1.811c2.352,0,4.129,1.55,4.129,4.891V264.289z"/>
</g>
</svg>
