<?xml version="1.0" encoding="utf-8"?>
<!-- Generator: Adobe Illustrator 16.0.0, SVG Export Plug-In . SVG Version: 6.00 Build 0)  -->
<!DOCTYPE svg PUBLIC "-//W3C//DTD SVG 1.1//EN" "http://www.w3.org/Graphics/SVG/1.1/DTD/svg11.dtd">
<svg version="1.1" id="Layer_1" xmlns="http://www.w3.org/2000/svg" xmlns:xlink="http://www.w3.org/1999/xlink" x="0px" y="0px"
	 width="33.325px" height="28px" viewBox="7.382 5.977 33.325 28" enable-background="new 7.382 5.977 33.325 28"
	 xml:space="preserve">
<g>
	<path fill="#999999" d="M14.698,8.828c-1.283,0-1.922,0.589-1.922,1.767v6.728c0,1.447-0.682,2.294-2.047,2.543
		c1.366,0.228,2.047,1.065,2.047,2.511v7.285c0,0.54,0.148,0.911,0.45,1.118c0.3,0.208,0.873,0.312,1.721,0.312v2.883h-1.054
		c-2.811,0-4.217-1.365-4.217-4.094v-6.699c0-0.682-0.124-1.16-0.373-1.441c-0.247-0.281-0.64-0.418-1.178-0.418H7.382V18.44h0.744
		c0.538,0,0.931-0.145,1.178-0.435c0.249-0.287,0.373-0.784,0.373-1.487V10.07c-0.001-2.729,1.404-4.093,4.216-4.093h1.054V8.86
		C14.885,8.84,14.801,8.828,14.698,8.828z"/>
</g>
<g>
	<path fill="#999999" d="M34.196,33.977h-1.055v-2.884c0.848,0,1.421-0.104,1.722-0.312c0.3-0.205,0.449-0.578,0.449-1.116v-7.286
		c0-1.446,0.685-2.284,2.049-2.511c-1.364-0.249-2.049-1.096-2.049-2.543v-6.729c0-0.641-0.17-1.101-0.511-1.379
		c-0.339-0.278-0.677-0.419-1.007-0.419h-0.093L33.141,8.86V5.977h1.055c2.812,0,4.219,1.365,4.219,4.093v6.45
		c0,0.703,0.125,1.199,0.371,1.487c0.248,0.29,0.64,0.434,1.178,0.434h0.743v2.883h-0.743c-0.536,0-0.93,0.141-1.178,0.42
		c-0.246,0.277-0.371,0.76-0.371,1.442v6.697C38.415,32.609,37.008,33.977,34.196,33.977z"/>
</g>
<g>
	<path fill="#999999" d="M23.002,21.988l-3.813-9.48h2.067l2.886,7.162l2.889-7.162h2.066l-3.813,9.48H23.002z"/>
</g>
</svg>
