<?xml version="1.0" encoding="utf-8"?>
<!-- Generator: Adobe Illustrator 16.0.0, SVG Export Plug-In . SVG Version: 6.00 Build 0)  -->
<!DOCTYPE svg PUBLIC "-//W3C//DTD SVG 1.1//EN" "http://www.w3.org/Graphics/SVG/1.1/DTD/svg11.dtd">
<svg version="1.1" id="Layer_1" xmlns="http://www.w3.org/2000/svg" xmlns:xlink="http://www.w3.org/1999/xlink" x="0px" y="0px"
	 width="22px" height="21.391px" viewBox="0 0 22 21.391" enable-background="new 0 0 22 21.391" xml:space="preserve">
<path fill="#999999" d="M0.323,0.244c-0.552,0.552-0.414,1.187,0.552,2.619C1.371,3.607,1.95,4.766,2.17,5.428
	c0.222,0.689,0.662,1.627,0.966,2.097c0.551,0.772,0.551,0.937,0.192,2.345c-0.222,0.881-0.303,1.986-0.192,2.674
	c0.165,1.158,1.103,2.841,1.683,3.034c0.496,0.165,1.213-0.717,1.24-1.517c0-0.689,0.028-0.717,0.331-0.222
	c0.524,0.854,2.178,2.674,2.316,2.536c0.056-0.055-0.301-0.771-0.827-1.571c-0.496-0.827-1.075-1.901-1.295-2.398
	c-0.303-0.827-0.415-0.883-0.773-0.497c-0.221,0.222-0.496,0.854-0.579,1.433c-0.22,1.324-0.716,1.489-1.102,0.36
	c-0.387-1.131-0.387-3.063,0-4.385c0.275-0.91,0.248-1.159-0.221-1.848C3.605,7.054,3.134,6.062,2.887,5.262
	c-0.249-0.774-0.828-1.932-1.295-2.54C0.515,1.207,0.515,0.655,1.646,0.876c0.468,0.083,1.186,0.413,1.628,0.716
	c0.412,0.303,1.129,0.551,1.571,0.551c1.324,0,3.642,1.295,5.322,2.979c1.297,1.295,1.958,2.343,3.365,5.184
	c1.654,3.364,1.792,3.558,2.812,3.888c1.215,0.414,3.752,1.957,3.752,2.289c0,0.112-0.636,0.276-1.407,0.331
	c-2.067,0.222-2.263,0.608-0.909,1.821c0.635,0.55,1.82,1.406,2.674,1.875L22,21.391l-0.718-0.91
	c-0.414-0.496-1.269-1.268-1.93-1.682c-0.663-0.413-1.188-0.854-1.188-0.965s0.468-0.303,1.05-0.385
	c1.543-0.278,1.983-0.416,1.983-0.69c0-0.415-2.783-2.51-4.107-3.09c-1.132-0.523-1.27-0.745-2.73-3.749
	c-1.298-2.758-1.821-3.531-3.475-5.187c-2.124-2.122-3.585-3.033-5.46-3.309C4.79,1.316,3.908,0.985,3.522,0.709
	C2.611,0.021,0.765-0.229,0.322,0.241L0.323,0.244z"/>
</svg>
