<?xml version="1.0" encoding="utf-8"?>
<!-- Generator: Adobe Illustrator 16.0.0, SVG Export Plug-In . SVG Version: 6.00 Build 0)  -->
<!DOCTYPE svg PUBLIC "-//W3C//DTD SVG 1.1//EN" "http://www.w3.org/Graphics/SVG/1.1/DTD/svg11.dtd">
<svg version="1.1" id="Layer_1" xmlns="http://www.w3.org/2000/svg" xmlns:xlink="http://www.w3.org/1999/xlink" x="0px" y="0px"
	 width="22px" height="21.635px" viewBox="0 0 22 21.635" enable-background="new 0 0 22 21.635" xml:space="preserve">
<g>
	<path fill="#999999" d="M0,0v21.635h22V0H0z M20.251,19.915H1.75V1.722h18.501V19.915z"/>
	<path fill="#999999" d="M10.388,6.071C9.833,5.592,9.009,5.322,7.852,5.322c-1.145,0-2.535,0.037-2.535,0.037v8.873h1.858V11.38
		c0,0,0.324-0.004,0.677-0.019c1.272-0.053,2.019-0.439,2.658-1.089c0.493-0.504,0.764-1.223,0.764-2.099
		C11.274,7.294,10.917,6.523,10.388,6.071z M7.803,9.806C7.503,9.811,7.376,9.819,7.175,9.8V6.736c0,0,0.394-0.014,0.775,0
		c0.957,0.035,1.464,0.71,1.464,1.533C9.415,9.188,8.8,9.794,7.803,9.806z"/>
	<path fill="#999999" d="M14.902,10.079c-0.802-0.285-1.058-0.448-1.058-0.759c0-0.339,0.281-0.541,0.776-0.541
		c0.562,0,1.413,0.362,1.708,0.526V7.81c-0.403-0.204-1.011-0.453-1.773-0.453c-1.621,0-2.665,0.934-2.665,2.18
		c-0.014,0.771,0.507,1.322,1.86,1.784c0.764,0.256,0.965,0.612,0.965,0.952c0,0.339-0.254,0.556-0.871,0.556
		c-0.602,0-1.486-0.347-1.861-0.574l0,0v1.476c0.495,0.271,1.214,0.527,1.861,0.547c1.889,0.06,2.838-0.92,2.838-2.153
		C16.67,11.147,16.148,10.512,14.902,10.079L14.902,10.079z"/>
</g>
</svg>
