<?xml version="1.0" encoding="utf-8"?>
<!-- Generator: Adobe Illustrator 16.0.0, SVG Export Plug-In . SVG Version: 6.00 Build 0)  -->
<!DOCTYPE svg PUBLIC "-//W3C//DTD SVG 1.1//EN" "http://www.w3.org/Graphics/SVG/1.1/DTD/svg11.dtd">
<svg version="1.1" id="Layer_1" xmlns="http://www.w3.org/2000/svg" xmlns:xlink="http://www.w3.org/1999/xlink" x="0px" y="0px"
	 width="22px" height="10.633px" viewBox="0 0 22 10.633" enable-background="new 0 0 22 10.633" xml:space="preserve">
<path fill="#999999" d="M5.528,2.188H1.667L0,10.633h1.982l0.417-2.189h1.877c1.772,0.105,3.753-1.355,3.753-3.857
	C8.029,3.127,7.194,2.292,5.528,2.188L5.528,2.188L5.528,2.188z M4.067,6.88H2.815l0.521-3.127h1.355c0.729,0,1.25,0.313,1.25,0.938
	C5.839,6.465,5.005,6.777,4.067,6.88z M12.511,2.188h-1.875L11.052,0h-1.98L7.404,8.444h1.98l0.94-4.69h1.563
	c0.73,0,0.73,0.314,0.624,0.834l-0.729,3.857h2.086l0.728-4.274c0.209-1.043-0.416-1.878-2.085-1.981V2.188z M19.497,2.188H15.64
	l-1.668,8.446h1.98l0.417-2.189h1.877C20.021,8.549,22,7.088,22,4.586c0-1.459-0.834-2.294-2.501-2.398L19.497,2.188L19.497,2.188z
	 M18.037,6.88h-1.252l0.522-3.127h1.355c0.729,0,1.252,0.313,1.252,0.938C19.811,6.465,18.976,6.777,18.037,6.88z"/>
</svg>
