<?xml version="1.0" encoding="utf-8"?>
<!-- Generator: Adobe Illustrator 16.0.0, SVG Export Plug-In . SVG Version: 6.00 Build 0)  -->
<!DOCTYPE svg PUBLIC "-//W3C//DTD SVG 1.1//EN" "http://www.w3.org/Graphics/SVG/1.1/DTD/svg11.dtd">
<svg version="1.1" id="Layer_1" xmlns="http://www.w3.org/2000/svg" xmlns:xlink="http://www.w3.org/1999/xlink" x="0px" y="0px"
	 width="30px" height="30px" viewBox="241 241 30 30" enable-background="new 241 241 30 30" xml:space="preserve">
<g>
	<path fill="#999999" d="M262.064,250.325l-9,9.065l-3.404-3.404l-1.284,1.284l4.039,4.038c0.18,0.181,0.425,0.324,0.642,0.324
		s0.455-0.144,0.635-0.317l9.642-9.692L262.064,250.325z"/>
	<g>
		<path fill="#999999" d="M256,241c-8.286,0-15,6.714-15,15s6.714,15,15,15s15-6.714,15-15S264.286,241,256,241z M256,269.752
			c-7.579,0-13.752-6.165-13.752-13.752c0-7.579,6.166-13.752,13.752-13.752c7.579,0,13.752,6.166,13.752,13.752
			C269.752,263.579,263.579,269.752,256,269.752z"/>
	</g>
</g>
</svg>
