<?xml version="1.0" encoding="utf-8"?>
<!-- Generator: Adobe Illustrator 16.0.0, SVG Export Plug-In . SVG Version: 6.00 Build 0)  -->
<!DOCTYPE svg PUBLIC "-//W3C//DTD SVG 1.1//EN" "http://www.w3.org/Graphics/SVG/1.1/DTD/svg11.dtd">
<svg version="1.1" id="Layer_1" xmlns="http://www.w3.org/2000/svg" xmlns:xlink="http://www.w3.org/1999/xlink" x="0px" y="0px"
	 width="40px" height="40px" viewBox="236.3 236 40 40" enable-background="new 236.3 236 40 40" xml:space="preserve">
<path fill="#FFFFFF" d="M276.3,273.573l-11.802-11.812c2.166-2.709,3.469-6.157,3.469-9.907c0-8.76-7.094-15.854-15.833-15.854
	c-8.75,0-15.833,7.104-15.833,15.854c0,8.75,7.094,15.854,15.833,15.854c3.771,0,7.229-1.322,9.948-3.521L273.873,276L276.3,273.573
	z M242.112,261.896c-2.677-2.677-4.146-6.239-4.146-10.031c0-3.792,1.479-7.354,4.146-10.031c2.667-2.677,6.24-4.167,10.021-4.167
	s7.343,1.479,10.021,4.156c2.677,2.677,4.146,6.24,4.146,10.031c0,3.792-1.479,7.354-4.146,10.032
	c-2.678,2.677-6.24,4.156-10.021,4.156C248.352,266.052,244.79,264.573,242.112,261.896z"/>
</svg>
