<?xml version="1.0" encoding="utf-8"?>
<!-- Generator: Adobe Illustrator 16.0.0, SVG Export Plug-In . SVG Version: 6.00 Build 0)  -->
<!DOCTYPE svg PUBLIC "-//W3C//DTD SVG 1.1//EN" "http://www.w3.org/Graphics/SVG/1.1/DTD/svg11.dtd">
<svg version="1.1" id="Layer_1" xmlns="http://www.w3.org/2000/svg" xmlns:xlink="http://www.w3.org/1999/xlink" x="0px" y="0px"
	 width="30px" height="30px" viewBox="0 0 30 30" enable-background="new 0 0 30 30" xml:space="preserve">
<g>
	<path fill="#999999" d="M17.91,6.744l-2.191,8.17l5.855,5.859C22.98,19.177,23.75,17.147,23.75,15c0-2.337-0.91-4.535-2.563-6.187
		C20.246,7.872,19.129,7.173,17.91,6.744z"/>
	<path fill="#999999" d="M16.725,6.419C16.163,6.307,15.586,6.25,15,6.25c-2.337,0-4.535,0.91-6.187,2.563
		C7.16,10.465,6.25,12.663,6.25,15c0,0.584,0.057,1.158,0.167,1.718l8.137-2.178L16.725,6.419z"/>
	<path fill="#999999" d="M6.755,17.945c0.43,1.205,1.125,2.31,2.058,3.241c1.652,1.653,3.85,2.563,6.187,2.563
		c2.11,0,4.105-0.742,5.69-2.103l-5.854-5.851L6.755,17.945z"/>
	<path fill="#999999" d="M30,16.31v-2.501l-2.601-0.68l-0.204-1.032l2.156-1.633L28.398,8.15l-2.687,0.375l-0.585-0.829l1.382-2.32
		L24.744,3.61l-2.359,1.36l-0.835-0.57l0.413-2.735l-2.304-0.961l-1.688,2.212l-0.96-0.204L16.331,0h-2.499l-0.718,2.727
		l-0.945,0.188l-1.68-2.266L8.178,1.61l0.375,2.79L7.638,4.962L5.194,3.501L3.429,5.267l1.468,2.461L4.374,8.549L1.601,8.158
		l-0.953,2.313l2.257,1.696l-0.187,0.953L0,13.816v2.5l2.71,0.696l0.188,0.977l-2.219,1.664l0.961,2.306l2.734-0.391l0.554,0.883
		L3.53,24.843l1.766,1.766l2.358-1.422l0.875,0.57l-0.352,2.681l2.312,0.953l1.609-2.173l1.046,0.195L13.832,30h2.499l0.649-2.586
		l1.062-0.204l1.617,2.118l2.312-0.953l-0.39-2.634l0.796-0.578l2.265,1.32l1.766-1.766l-1.312-2.259l0.616-0.891l2.641,0.375
		l0.961-2.306l-2.125-1.602l0.211-1.055L30,16.31z M15,25C9.477,25,5,20.523,5,15C5,9.477,9.477,5,15,5c5.523,0,10,4.477,10,10
		C25,20.523,20.523,25,15,25z"/>
</g>
</svg>
