<?xml version="1.0" encoding="utf-8"?>
<!-- Generator: Adobe Illustrator 16.0.0, SVG Export Plug-In . SVG Version: 6.00 Build 0)  -->
<!DOCTYPE svg PUBLIC "-//W3C//DTD SVG 1.1//EN" "http://www.w3.org/Graphics/SVG/1.1/DTD/svg11.dtd">
<svg version="1.1" id="Layer_1" xmlns="http://www.w3.org/2000/svg" xmlns:xlink="http://www.w3.org/1999/xlink" x="0px" y="0px"
	 width="30.723px" height="25px" viewBox="240.688 243.5 30.723 25" enable-background="new 240.688 243.5 30.723 25"
	 xml:space="preserve">
<path fill="#999999" d="M271.411,246.462c-1.133,0.501-2.344,0.84-3.619,0.996c1.302-0.781,2.305-2.019,2.773-3.49
	c-1.218,0.723-2.565,1.25-4.004,1.53c-1.152-1.23-2.793-1.999-4.604-1.999c-3.482,0-6.302,2.826-6.302,6.309
	c0,0.495,0.052,0.977,0.163,1.439c-5.241-0.261-9.889-2.773-12.995-6.595c-0.541,0.931-0.853,2.018-0.853,3.17
	c0,2.188,1.12,4.121,2.812,5.254c-1.042-0.026-2.018-0.312-2.865-0.788c0,0.026,0,0.052,0,0.078c0,3.06,2.175,5.605,5.059,6.185
	c-0.528,0.144-1.087,0.222-1.66,0.222c-0.404,0-0.801-0.039-1.185-0.117c0.801,2.507,3.131,4.329,5.892,4.382
	c-2.155,1.692-4.876,2.701-7.832,2.701c-0.508,0-1.009-0.032-1.504-0.091c2.78,1.81,6.094,2.852,9.648,2.852
	c11.608,0,17.949-9.616,17.949-17.956c0-0.273-0.006-0.547-0.02-0.814C269.497,248.838,270.565,247.732,271.411,246.462z"/>
</svg>
