<?xml version="1.0" encoding="utf-8"?>
<!-- Generator: Adobe Illustrator 16.0.0, SVG Export Plug-In . SVG Version: 6.00 Build 0)  -->
<!DOCTYPE svg PUBLIC "-//W3C//DTD SVG 1.1//EN" "http://www.w3.org/Graphics/SVG/1.1/DTD/svg11.dtd">
<svg version="1.1" id="Layer_1" xmlns="http://www.w3.org/2000/svg" xmlns:xlink="http://www.w3.org/1999/xlink" x="0px" y="0px"
	 width="22px" height="22.002px" viewBox="0 0 22 22.002" enable-background="new 0 0 22 22.002" xml:space="preserve">
<path fill="#999999" d="M0,11.002c0,4.354,2.53,8.118,6.199,9.898L0.954,6.523C0.342,7.893,0,9.406,0,11.002z M18.429,10.446
	c0-1.36-0.49-2.302-0.908-3.034c-0.557-0.908-1.08-1.674-1.08-2.581c0-1.01,0.765-1.953,1.848-1.953
	c0.047,0,0.095,0.006,0.143,0.011C16.473,1.095,13.867,0,11.002,0C7.158,0,3.777,1.973,1.811,4.959
	c0.26,0.008,0.502,0.015,0.708,0.015c1.15,0,2.932-0.142,2.932-0.142C6.043,4.8,6.112,5.668,5.52,5.739c0,0-0.594,0.07-1.257,0.106
	L8.269,17.76l2.407-7.22L8.96,5.845C8.367,5.81,7.808,5.739,7.808,5.739C7.214,5.704,7.286,4.8,7.879,4.832
	c0,0,1.816,0.142,2.896,0.142c1.151,0,2.934-0.142,2.934-0.142c0.591-0.032,0.66,0.836,0.067,0.907c0,0-0.593,0.07-1.257,0.106
	l3.977,11.825l1.097-3.667c0.558-1.431,0.838-2.613,0.838-3.556L18.429,10.446L18.429,10.446z M11.193,11.964l-3.3,9.592
	c0.984,0.29,2.025,0.446,3.107,0.446c1.28,0,2.512-0.221,3.654-0.624c-0.029-0.047-0.056-0.097-0.078-0.151L11.193,11.964
	L11.193,11.964z M20.654,5.724c0.048,0.352,0.076,0.727,0.076,1.132c0,1.116-0.21,2.37-0.839,3.94l-3.359,9.715
	C19.801,18.605,22,15.063,22,11.003c0-1.915-0.489-3.712-1.348-5.28L20.654,5.724L20.654,5.724z"/>
</svg>
