<?xml version="1.0" encoding="utf-8"?>
<!-- Generator: Adobe Illustrator 16.0.0, SVG Export Plug-In . SVG Version: 6.00 Build 0)  -->
<!DOCTYPE svg PUBLIC "-//W3C//DTD SVG 1.1//EN" "http://www.w3.org/Graphics/SVG/1.1/DTD/svg11.dtd">
<svg version="1.1" id="Layer_1" xmlns="http://www.w3.org/2000/svg" xmlns:xlink="http://www.w3.org/1999/xlink" x="0px" y="0px"
	 width="119px" height="100px" viewBox="0 0 119 100" enable-background="new 0 0 119 100" xml:space="preserve">
<g>
	<path fill="#FFFFFF" d="M26.257,10.389c-4.556,0-6.833,2.094-6.833,6.281v23.914c0,5.143-2.424,8.155-7.273,9.036
		c4.849,0.809,7.273,3.785,7.273,8.926v25.897c0,1.909,0.532,3.231,1.598,3.967c1.064,0.733,3.103,1.102,6.116,1.102v10.249h-3.747
		c-9.992,0-14.987-4.849-14.987-14.546V61.411c0-2.425-0.441-4.133-1.323-5.124c-0.881-0.992-2.278-1.488-4.188-1.488H0.25V44.55
		h2.645c1.91,0,3.306-0.513,4.188-1.542c0.882-1.028,1.323-2.792,1.323-5.29V14.796C8.405,5.099,13.4,0.25,23.392,0.25h3.747v10.249
		C26.918,10.426,26.624,10.389,26.257,10.389z"/>
</g>
<g>
	<path fill="#FFFFFF" d="M95.557,99.761h-3.746V89.512c3.011,0,5.05-0.368,6.115-1.102c1.064-0.735,1.598-2.058,1.598-3.967V58.546
		c0-5.142,2.425-8.117,7.273-8.926c-4.849-0.881-7.273-3.893-7.273-9.036V16.67c0-2.276-0.605-3.912-1.818-4.904
		c-1.211-0.992-2.406-1.488-3.581-1.488h-0.331l-1.982,0.22V0.25h3.746c9.99,0,14.987,4.849,14.987,14.546v22.922
		c0,2.498,0.44,4.261,1.322,5.29c0.882,1.03,2.276,1.542,4.188,1.542h2.646v10.249h-2.646c-1.911,0-3.306,0.496-4.188,1.488
		c-0.882,0.991-1.322,2.699-1.322,5.124v23.804C110.544,94.912,105.547,99.761,95.557,99.761z"/>
</g>
<g>
	<path fill="#FFFFFF" d="M55.771,57.16L42.217,23.465h7.347l10.261,25.461l10.261-25.461h7.347L63.878,57.16H55.771z"/>
</g>
<g>
</g>
<g>
</g>
<g>
</g>
<g>
</g>
<g>
</g>
<g>
</g>
<g>
</g>
<g>
</g>
<g>
</g>
<g>
</g>
<g>
</g>
<g>
</g>
<g>
</g>
<g>
</g>
<g>
</g>
</svg>
