<svg xmlns="http://www.w3.org/2000/svg" xmlns:xlink="http://www.w3.org/1999/xlink" viewBox="0 0 263.97 46.71" width="263.97" height="46.71"><defs><style>.cls-4{fill:#bddeea;}.cls-5{fill:#95cdde;}.cls-6{fill:#dfeff5;}.cls-7{fill:#00abc5;}</style></defs><title>Asset 1</title><g id="Layer_2" data-name="Layer 2"><g id="Layer_1-2" data-name="Layer 1"><g class="cls-2"><path class="cls-3" d="M79.13,31.89c2.32,0,4.16-1.25,4.16-3.8s-1.75-3.77-4.16-3.77H72.32v7.58Zm-6.81-17.6v7.43h6.42c2.29,0,4-1.25,4-3.74s-1.72-3.69-4-3.69Zm9.93,8.53a5.53,5.53,0,0,1,4.07,5.44c0,4-3.48,6.24-7.7,6.24H69.35V11.68h9.48c4.25,0,7,2.41,7,5.94a5.34,5.34,0,0,1-3.54,5.14Z" transform="translate(0 0)"></path></g><polygon class="cls-3" points="93.07 34.51 93.07 11.68 107.72 11.68 107.72 14.29 96.04 14.29 96.04 21.73 106.26 21.73 106.26 24.31 96.04 24.31 96.04 31.89 107.93 31.89 107.93 34.51 93.07 34.51"></polygon><polygon class="cls-3" points="114.47 34.51 114.47 11.68 129.12 11.68 129.12 14.29 117.44 14.29 117.44 21.73 127.66 21.73 127.66 24.31 117.44 24.31 117.44 31.89 129.33 31.89 129.33 34.51 114.47 34.51"></polygon><polygon class="cls-3" points="143.18 24.31 138.87 24.31 138.87 34.5 135.87 34.5 135.87 11.68 138.87 11.68 138.87 21.72 143.24 21.72 149.36 11.68 152.78 11.68 145.79 22.94 153.07 34.5 149.51 34.5 143.18 24.31"></polygon><polygon class="cls-3" points="158.96 34.51 158.96 11.68 173.61 11.68 173.61 14.29 161.93 14.29 161.93 21.73 172.16 21.73 172.16 24.31 161.93 24.31 161.93 31.89 173.82 31.89 173.82 34.51 158.96 34.51"></polygon><polygon class="cls-3" points="180.36 34.51 180.36 11.68 195.01 11.68 195.01 14.29 183.33 14.29 183.33 21.73 193.56 21.73 193.56 24.31 183.33 24.31 183.33 31.89 195.22 31.89 195.22 34.51 180.36 34.51"></polygon><g class="cls-2"><path class="cls-3" d="M210.88,23.83c2.88,0,5-1.6,5-4.76s-2.2-4.78-5-4.78h-6.12v9.54Zm-.12-12.16c4.67,0,8.2,2.65,8.2,7.34s-3.63,7.43-8.29,7.43h-5.92V34.5h-3V11.68Z" transform="translate(0 0)"></path></g><polygon class="cls-3" points="225.48 34.51 225.48 11.68 240.13 11.68 240.13 14.29 228.45 14.29 228.45 21.73 238.67 21.73 238.67 24.31 228.45 24.31 228.45 31.89 240.34 31.89 240.34 34.51 225.48 34.51"></polygon><g class="cls-2"><path class="cls-3" d="M249.88,22.29h6.24c2.44,0,4.37-1.31,4.37-4s-1.87-4-4.34-4h-6.27Zm6.06,2.61h-6.06v9.6h-3V11.68h9.3c4.22,0,7.34,2.41,7.34,6.54a6.1,6.1,0,0,1-4.58,6l5,10.28h-3.39Z" transform="translate(0 0)"></path></g><polygon class="cls-4" points="20.23 0 0 11.68 20.23 23.36 20.23 0"></polygon><polygon class="cls-5" points="20.23 0 20.23 23.36 40.46 11.68 20.23 0"></polygon><polygon class="cls-6" points="0 35.03 20.23 23.36 0 11.68 0 35.03"></polygon><polygon class="cls-7" points="20.23 23.36 0 35.03 20.23 46.71 40.46 35.03 40.46 11.68 20.23 23.36"></polygon></g></g></svg>