<svg width="533px" height="200px" viewBox="0 0 533 200" xmlns="http://www.w3.org/2000/svg" style="fill: #011041;"><path d="M163.4 127.5V38.53c0-4.93 1.14-6.07 6.07-6.07h2.09c4.93 0 6.07 1.14 6.07 6.07v45.15c4.55-8.54 13.66-13.85 29.59-13.85 28.46 0 39.27 15.55 39.27 40.02v17.65c0 25.8-12.33 39.64-41.55 39.64-28.07 0-41.54-13.84-41.54-39.64zm68.67-.2v-17.64c0-17.26-5.31-26.36-27.13-26.36-21.81 0-27.31 9.1-27.31 26.36v17.65c0 17.07 5.5 26.36 27.31 26.36 22 0 27.13-9.3 27.13-26.36zm35.47 13.66c0 18.78 9.87 25.42 22.01 25.42.95 0 1.9 0 3.41-.19 4.37-.75 5.32-2.27 5.32-7.01v-1.33c0-4.74-1.33-4.93-5.88-4.93h-.95c-5.7 0-9.68-3.04-9.68-14.42V38.53c0-4.93-1.14-6.07-6.07-6.07h-2.08c-4.94 0-6.08 1.14-6.08 6.07v102.43zm46.86 18.22c0 4.93 1.14 6.07 6.07 6.07h2.09c4.93 0 6.07-1.14 6.07-6.07V77.79c0-4.93-1.14-6.07-6.07-6.07h-2.09c-4.93 0-6.07 1.14-6.07 6.07v81.39zM312.12 42.5c0 5.12 4.18 9.1 9.49 9.1a9.1 9.1 0 0 0 9.1-9.1c0-5.12-3.98-9.3-9.1-9.3a9.35 9.35 0 0 0-9.49 9.3zm55.4 62.8c0-14.05 5.12-22.01 25.42-22.01s25.04 7.96 25.04 22v53.88c0 4.93 1.13 6.07 6.07 6.07h2.27c4.94 0 6.07-1.14 6.07-6.07V105.3c0-22-10.43-35.47-39.45-35.47-28.65 0-39.65 13.66-39.65 35.47v53.88c0 4.93 1.14 6.07 6.07 6.07h2.09c4.93 0 6.07-1.14 6.07-6.07V105.3zm89.15 53.87c0 4.93 1.14 6.07 6.08 6.07h2.08c4.93 0 6.07-1.14 6.07-6.07V38.53c0-4.93-1.14-6.07-6.07-6.07h-2.08c-4.94 0-6.08 1.14-6.08 6.07v120.65zm28.27-59.19c-6.45 6.64-7.78 10.24-7.78 15.37 0 5.3 1.33 9.67 7.78 16.5l25.42 27.5c4.36 4.75 7.02 5.89 13.47 5.89h2.27c6.45 0 6.83-1.14 2.47-5.88L495 123.13c-2.46-2.46-3.79-4.93-3.79-7.4 0-2.46 1.52-4.55 3.98-7.2l29.6-31.11c4.36-4.56 3.98-5.7-2.47-5.7h-2.28c-6.45 0-9.1 1.14-13.46 5.7l-21.63 22.57zM54.38.14c14.33 0 28.58 5.07 39.2 13.98 12.83 10.76 19.65 26.21 19.65 44.52 0 8.97-3.86 18.71-11.77 29.97-5.87 8.36-13.85 17.46-25.43 29.03-3.86 3.86-8.01 7.9-13.87 13.48a4619.85 4619.85 0 0 1-8.77 8.33l-.3.29c-3.68 3.5-6.3 6-8.72 8.36a319.63 319.63 0 0 0-15.2 15.59c-8.7 9.71-13.15 17-13.15 21.04v3.48l-15.88-7.3V14.2C.14 6.35 6.94.14 15.28.14h39.1zm-38.3 16.5v6.82l-.02 27.3-.04 103.83a334.11 334.11 0 0 1 17.28-17.88 1109.97 1109.97 0 0 1 13.62-13.01l4.29-4.08c5.76-5.5 9.83-9.45 13.6-13.21C75.7 95.5 83.18 87 88.46 79.49c5.95-8.47 8.89-15.47 8.89-20.85 0-13.65-4.77-24.64-13.97-32.35-7.75-6.5-18.39-10.27-29-10.27h-38.3v.62z"></path><path d="M62.42 183.99c15.75 0 28.37-4.52 36.92-13.12 7.6-7.64 11.74-18.35 11.74-30.5 0-10.35-4.01-19.12-12.76-27.77-3.81-3.77-8.56-7.56-14.64-11.67A317.56 317.56 0 0 0 65.6 89.77a4690.84 4690.84 0 0 0-6.1-3.56c-9.54-5.6-14.92-8.93-20.3-12.57-7.5-5.11-13.52-9.96-18.58-15C7.6 45.68.9 31.28.15 14.55l15.7-4.19.16 3.48c.57 12.69 5.6 23.38 15.81 33.55 4.33 4.31 9.62 8.56 16.31 13.11 5.04 3.43 10.18 6.6 19.4 12a5038.95 5038.95 0 0 0 6.1 3.57 331 331 0 0 1 18.94 11.7c6.9 4.67 12.37 9.05 16.92 13.54 11.74 11.62 17.47 24.37 17.47 39.06 0 16.32-5.76 31.04-16.36 41.7-11.62 11.68-28.24 17.8-48.18 17.8H15.28c-8.34 0-15.14-6.21-15.14-14.05v-5.58h15.88V184h46.4z"></path></svg>