<svg width="403" height="260" viewBox="0 0 403 260" fill="none" xmlns="http://www.w3.org/2000/svg">
<line x1="38.7379" y1="201.138" x2="10.9562" y2="96.5475" stroke="#24B9CC" stroke-opacity="0.4"/>
<line x1="11.9393" y1="24.502" x2="13.5735" y2="96.4078" stroke="#24B9CC" stroke-opacity="0.4"/>
<line x1="86.1977" y1="137.552" x2="11.0235" y2="24.7907" stroke="#24B9CC" stroke-opacity="0.4"/>
<line x1="151.586" y1="129.408" x2="86.2174" y2="44.4288" stroke="#24B9CC" stroke-opacity="0.4"/>
<line x1="86.1138" y1="137.275" x2="86.1138" y2="44.124" stroke="#24B9CC" stroke-opacity="0.4"/>
<line x1="151.485" y1="130.784" x2="144.824" y2="59.2807" stroke="#24B9CC" stroke-opacity="0.4"/>
<line x1="144.871" y1="58.2272" x2="166.985" y2="12.4193" stroke="#24B9CC" stroke-opacity="0.4"/>
<line x1="167.69" y1="12.206" x2="242.72" y2="56.4343" stroke="#24B9CC" stroke-opacity="0.4"/>
<line x1="151.674" y1="128.71" x2="243.19" y2="56.8046" stroke="#24B9CC" stroke-opacity="0.4"/>
<line x1="11.5753" y1="24.0598" x2="86.7495" y2="45.277" stroke="#24B9CC" stroke-opacity="0.4"/>
<line x1="11.403" y1="24.0147" x2="168.288" y2="12.5474" stroke="#24B9CC" stroke-opacity="0.4"/>
<line x1="168.355" y1="10.9681" x2="276.214" y2="17.4773" stroke="#24B9CC" stroke-opacity="0.4"/>
<path d="M86.791 44.9606L145.623 58.0344" stroke="#24B9CC" stroke-opacity="0.4"/>
<path d="M145.446 58.832L243.5 57.2505" stroke="#24B9CC" stroke-opacity="0.4"/>
<path d="M13.0737 96.3664L86.6138 45.7582" stroke="#24B9CC" stroke-opacity="0.4"/>
<path d="M86.6138 45.7582L168.325 11.4396" stroke="#24B9CC" stroke-opacity="0.4"/>
<path d="M39.2212 201.009L124.201 168.325" stroke="#24B9CC" stroke-opacity="0.4"/>
<path d="M39.2212 201.009L86.6137 137.275" stroke="#24B9CC" stroke-opacity="0.4"/>
<path d="M86.6138 137.275L124.201 168.325" stroke="#24B9CC" stroke-opacity="0.4"/>
<path d="M151.983 129.104L209.18 201.009" stroke="#24B9CC" stroke-opacity="0.4"/>
<path d="M151.983 129.104L155.251 220.62" stroke="#24B9CC" stroke-opacity="0.4"/>
<path d="M151.983 129.104L124.201 168.325" stroke="#24B9CC" stroke-opacity="0.4"/>
<path d="M39.2212 199.375L155.251 220.62" stroke="#24B9CC" stroke-opacity="0.4"/>
<path d="M124.201 168.325L155.251 220.62" stroke="#24B9CC" stroke-opacity="0.4"/>
<path d="M209.18 201.009L155.251 220.62" stroke="#24B9CC" stroke-opacity="0.4"/>
<path d="M263.11 189.57L209.181 201.009" stroke="#24B9CC" stroke-opacity="0.4"/>
<path d="M209.295 201.397L221.142 142.952" stroke="#24B9CC" stroke-opacity="0.4"/>
<path d="M263.11 189.57L222.254 143.812" stroke="#24B9CC" stroke-opacity="0.4"/>
<path d="M222.254 143.812L151.983 129.104" stroke="#24B9CC" stroke-opacity="0.4"/>
<path d="M325.21 253.305L263.11 189.57" stroke="#24B9CC" stroke-opacity="0.4"/>
<path d="M222.254 143.812L243.499 57.1978" stroke="#24B9CC" stroke-opacity="0.4"/>
<path d="M243.499 57.1978L263.11 189.57" stroke="#24B9CC" stroke-opacity="0.4"/>
<path d="M263.11 189.57L325.21 155.251" stroke="#24B9CC" stroke-opacity="0.4"/>
<path d="M325.21 155.251L222.254 143.812" stroke="#24B9CC" stroke-opacity="0.4"/>
<path d="M325.21 155.251V253.305" stroke="#24B9CC" stroke-opacity="0.4"/>
<path d="M263.11 189.57L361.163 207.546" stroke="#24B9CC" stroke-opacity="0.4"/>
<path d="M361.163 207.546L325.21 253.305" stroke="#24B9CC" stroke-opacity="0.4"/>
<path d="M361.163 207.546L382.408 117.664" stroke="#24B9CC" stroke-opacity="0.4"/>
<path d="M382.408 117.664L325.21 155.251" stroke="#24B9CC" stroke-opacity="0.4"/>
<path d="M361.163 207.546L325.21 155.251" stroke="#24B9CC" stroke-opacity="0.4"/>
<path d="M325.21 155.251L313.771 96.4191" stroke="#24B9CC" stroke-opacity="0.4"/>
<path d="M313.771 96.4191L243.499 57.1978" stroke="#24B9CC" stroke-opacity="0.4"/>
<path d="M388.945 65.3689L382.408 117.664" stroke="#24B9CC" stroke-opacity="0.4"/>
<path d="M313.771 96.4191L388.945 65.3689" stroke="#24B9CC" stroke-opacity="0.4"/>
<path d="M276.184 17.9764L312.137 96.4191" stroke="#24B9CC" stroke-opacity="0.4"/>
<path d="M243.499 57.1978L276.183 17.9764" stroke="#24B9CC" stroke-opacity="0.4"/>
<circle cx="85.7967" cy="44.9411" r="20.4278" fill="#24B9CC"/>
<circle cx="151.166" cy="128.286" r="20.4278" fill="#24B9CC"/>
<circle cx="242.682" cy="56.3807" r="20.4278" fill="#24B9CC"/>
<circle cx="38.4044" cy="200.192" r="20.4278" fill="#24B9CC"/>
<circle cx="262.293" cy="188.753" r="20.4278" fill="#24B9CC"/>
<circle cx="381.591" cy="116.847" r="20.4278" fill="#24B9CC"/>
<circle cx="12.2567" cy="95.602" r="12.2567" fill="#24B9CC"/>
<circle cx="85.7967" cy="136.458" r="12.2567" fill="#24B9CC"/>
<circle cx="154.434" cy="219.803" r="12.2567" fill="#24B9CC"/>
<circle cx="221.437" cy="142.994" r="12.2567" fill="#24B9CC"/>
<circle cx="312.954" cy="95.602" r="12.2567" fill="#24B9CC"/>
<circle cx="360.346" cy="206.729" r="12.2567" fill="#24B9CC"/>
<circle cx="167.508" cy="12.2566" r="12.2567" fill="#24B9CC"/>
<circle cx="11.4395" cy="24.5133" r="6.53689" fill="#24B9CC"/>
<circle cx="124.201" cy="168.325" r="6.53689" fill="#24B9CC"/>
<circle cx="145.446" cy="58.832" r="6.53689" fill="#24B9CC"/>
<circle cx="209.18" cy="201.009" r="6.53689" fill="#24B9CC"/>
<circle cx="388.945" cy="65.3689" r="6.53689" fill="#24B9CC"/>
<circle cx="276.184" cy="17.9764" r="6.53689" fill="#24B9CC"/>
<circle cx="325.21" cy="155.251" r="6.53689" fill="#24B9CC"/>
<circle cx="325.21" cy="253.305" r="6.53689" fill="#24B9CC"/>
</svg>
