<svg width="329" height="312" viewBox="0 0 329 312" fill="none" xmlns="http://www.w3.org/2000/svg">
<circle cx="99.0964" cy="212.066" r="97.7874" stroke="#2B2D42" stroke-width="2.61804"/>
<circle cx="229.904" cy="212.066" r="97.7874" stroke="#2B2D42" stroke-width="2.61804"/>
<circle cx="164.5" cy="99.0964" r="97.7874" stroke="#2B2D42" stroke-width="2.61804"/>
<path fill-rule="evenodd" clip-rule="evenodd" d="M193.735 191.863C184.502 194.781 174.683 196.353 164.5 196.353C154.317 196.353 144.497 194.781 135.265 191.863C139.646 171.77 150.065 153.968 164.5 140.501C178.934 153.968 189.353 171.77 193.735 191.863Z" fill="#24B9CC"/>
<path d="M213.976 235.568C213.976 234.081 214.164 232.676 214.54 231.354C214.916 230.031 215.455 228.792 216.158 227.635H217.162C216.86 228.122 216.584 228.674 216.331 229.29C216.084 229.905 215.869 230.562 215.687 231.261C215.505 231.959 215.365 232.674 215.265 233.405C215.166 234.132 215.117 234.854 215.117 235.568C215.117 236.523 215.203 237.486 215.377 238.457C215.551 239.428 215.79 240.349 216.096 241.221C216.406 242.093 216.761 242.853 217.162 243.502H216.158C215.455 242.341 214.916 241.099 214.54 239.777C214.164 238.455 213.976 237.052 213.976 235.568ZM219.798 241.915V229.222H227.142V230.263H220.957V235.042H226.566V236.083H220.957V241.915H219.798ZM232.945 242.113C232.057 242.113 231.288 241.907 230.64 241.494C229.991 241.076 229.489 240.5 229.133 239.764C228.782 239.025 228.607 238.174 228.607 237.211C228.607 236.252 228.782 235.401 229.133 234.657C229.489 233.909 229.978 233.325 230.602 232.903C231.23 232.478 231.956 232.265 232.778 232.265C233.294 232.265 233.792 232.36 234.272 232.55C234.751 232.736 235.181 233.023 235.561 233.411C235.945 233.796 236.249 234.281 236.472 234.868C236.695 235.451 236.807 236.141 236.807 236.938V237.484H229.369V236.51H235.679C235.679 235.899 235.555 235.349 235.307 234.862C235.063 234.37 234.722 233.982 234.284 233.697C233.85 233.411 233.348 233.269 232.778 233.269C232.175 233.269 231.644 233.43 231.185 233.752C230.726 234.075 230.367 234.5 230.107 235.029C229.85 235.558 229.72 236.136 229.716 236.765V237.347C229.716 238.103 229.846 238.764 230.107 239.331C230.371 239.892 230.745 240.328 231.228 240.638C231.712 240.948 232.284 241.103 232.945 241.103C233.396 241.103 233.79 241.033 234.129 240.892C234.472 240.752 234.759 240.564 234.991 240.328C235.226 240.089 235.404 239.826 235.524 239.541L236.571 239.882C236.426 240.283 236.189 240.653 235.858 240.992C235.532 241.33 235.123 241.603 234.631 241.81C234.143 242.012 233.582 242.113 232.945 242.113ZM241.897 242.132C241.322 242.132 240.798 242.02 240.322 241.797C239.847 241.57 239.469 241.244 239.188 240.818C238.907 240.388 238.767 239.868 238.767 239.256C238.767 238.785 238.856 238.388 239.033 238.066C239.211 237.744 239.463 237.479 239.789 237.273C240.116 237.066 240.502 236.903 240.948 236.783C241.395 236.663 241.886 236.57 242.424 236.504C242.957 236.438 243.407 236.38 243.775 236.331C244.147 236.281 244.43 236.203 244.624 236.095C244.818 235.988 244.915 235.814 244.915 235.575V235.351C244.915 234.703 244.721 234.192 244.332 233.821C243.948 233.444 243.395 233.256 242.671 233.256C241.986 233.256 241.426 233.407 240.992 233.709C240.562 234.011 240.26 234.366 240.087 234.775L239.039 234.397C239.254 233.876 239.552 233.461 239.932 233.151C240.312 232.837 240.738 232.612 241.209 232.476C241.68 232.335 242.157 232.265 242.64 232.265C243.004 232.265 243.382 232.312 243.775 232.407C244.171 232.502 244.539 232.668 244.878 232.903C245.217 233.135 245.492 233.459 245.702 233.876C245.913 234.289 246.018 234.814 246.018 235.451V241.915H244.915V240.409H244.847C244.715 240.69 244.518 240.963 244.258 241.227C243.998 241.492 243.671 241.708 243.279 241.878C242.886 242.047 242.426 242.132 241.897 242.132ZM242.045 241.122C242.632 241.122 243.14 240.992 243.57 240.731C244 240.471 244.33 240.126 244.562 239.696C244.797 239.262 244.915 238.785 244.915 238.264V236.889C244.832 236.967 244.694 237.037 244.5 237.099C244.31 237.161 244.089 237.217 243.837 237.267C243.589 237.312 243.341 237.351 243.093 237.384C242.845 237.417 242.622 237.446 242.424 237.471C241.886 237.537 241.428 237.641 241.048 237.781C240.667 237.922 240.376 238.116 240.174 238.364C239.971 238.607 239.87 238.921 239.87 239.306C239.87 239.884 240.077 240.333 240.49 240.651C240.903 240.965 241.421 241.122 242.045 241.122ZM255.349 234.484L254.339 234.769C254.24 234.484 254.1 234.225 253.918 233.994C253.736 233.763 253.498 233.579 253.205 233.442C252.916 233.306 252.556 233.238 252.126 233.238C251.482 233.238 250.953 233.391 250.54 233.697C250.127 234.002 249.92 234.397 249.92 234.88C249.92 235.289 250.06 235.622 250.341 235.878C250.627 236.13 251.065 236.331 251.655 236.479L253.093 236.833C253.891 237.027 254.488 237.335 254.885 237.756C255.285 238.178 255.486 238.707 255.486 239.343C255.486 239.88 255.337 240.357 255.04 240.775C254.742 241.192 254.327 241.52 253.794 241.76C253.265 241.996 252.651 242.113 251.953 242.113C251.023 242.113 250.257 241.905 249.653 241.487C249.05 241.066 248.664 240.459 248.494 239.665L249.554 239.405C249.691 239.971 249.957 240.399 250.354 240.688C250.755 240.977 251.281 241.122 251.934 241.122C252.666 241.122 253.25 240.959 253.688 240.632C254.126 240.302 254.345 239.888 254.345 239.393C254.345 239.008 254.217 238.686 253.961 238.426C253.705 238.161 253.317 237.967 252.796 237.843L251.24 237.471C250.414 237.273 249.802 236.959 249.406 236.529C249.009 236.099 248.811 235.566 248.811 234.93C248.811 234.405 248.953 233.944 249.238 233.548C249.523 233.147 249.916 232.833 250.416 232.606C250.916 232.378 251.486 232.265 252.126 232.265C252.998 232.265 253.695 232.463 254.215 232.86C254.74 233.252 255.118 233.794 255.349 234.484ZM260.56 242.132C259.986 242.132 259.461 242.02 258.986 241.797C258.511 241.57 258.133 241.244 257.852 240.818C257.571 240.388 257.43 239.868 257.43 239.256C257.43 238.785 257.519 238.388 257.697 238.066C257.875 237.744 258.127 237.479 258.453 237.273C258.78 237.066 259.166 236.903 259.612 236.783C260.058 236.663 260.55 236.57 261.087 236.504C261.62 236.438 262.071 236.38 262.438 236.331C262.81 236.281 263.093 236.203 263.288 236.095C263.482 235.988 263.579 235.814 263.579 235.575V235.351C263.579 234.703 263.385 234.192 262.996 233.821C262.612 233.444 262.058 233.256 261.335 233.256C260.649 233.256 260.089 233.407 259.656 233.709C259.226 234.011 258.924 234.366 258.751 234.775L257.703 234.397C257.918 233.876 258.216 233.461 258.596 233.151C258.976 232.837 259.401 232.612 259.872 232.476C260.343 232.335 260.821 232.265 261.304 232.265C261.668 232.265 262.046 232.312 262.438 232.407C262.835 232.502 263.203 232.668 263.542 232.903C263.88 233.135 264.155 233.459 264.366 233.876C264.577 234.289 264.682 234.814 264.682 235.451V241.915H263.579V240.409H263.511C263.378 240.69 263.182 240.963 262.922 241.227C262.662 241.492 262.335 241.708 261.943 241.878C261.55 242.047 261.089 242.132 260.56 242.132ZM260.709 241.122C261.296 241.122 261.804 240.992 262.234 240.731C262.664 240.471 262.994 240.126 263.226 239.696C263.461 239.262 263.579 238.785 263.579 238.264V236.889C263.496 236.967 263.358 237.037 263.164 237.099C262.974 237.161 262.752 237.217 262.5 237.267C262.252 237.312 262.005 237.351 261.757 237.384C261.509 237.417 261.286 237.446 261.087 237.471C260.55 237.537 260.091 237.641 259.711 237.781C259.331 237.922 259.04 238.116 258.837 238.364C258.635 238.607 258.534 238.921 258.534 239.306C258.534 239.884 258.74 240.333 259.153 240.651C259.567 240.965 260.085 241.122 260.709 241.122ZM267.846 241.915V229.222H268.956V234.211H269.055C269.179 233.926 269.356 233.633 269.588 233.331C269.823 233.029 270.131 232.777 270.511 232.575C270.896 232.368 271.379 232.265 271.962 232.265C272.743 232.265 273.429 232.471 274.019 232.885C274.61 233.294 275.071 233.868 275.402 234.608C275.732 235.343 275.897 236.201 275.897 237.18C275.897 238.163 275.732 239.025 275.402 239.764C275.075 240.504 274.616 241.08 274.026 241.494C273.439 241.907 272.757 242.113 271.98 242.113C271.402 242.113 270.918 242.01 270.53 241.804C270.146 241.597 269.836 241.343 269.6 241.041C269.365 240.735 269.183 240.438 269.055 240.149H268.918V241.915H267.846ZM268.937 237.161C268.937 237.93 269.051 238.612 269.278 239.207C269.509 239.797 269.84 240.262 270.27 240.601C270.703 240.936 271.228 241.103 271.844 241.103C272.476 241.103 273.011 240.93 273.449 240.583C273.887 240.231 274.22 239.758 274.447 239.163C274.674 238.568 274.788 237.901 274.788 237.161C274.788 236.43 274.674 235.771 274.447 235.184C274.224 234.597 273.893 234.132 273.455 233.79C273.017 233.442 272.48 233.269 271.844 233.269C271.224 233.269 270.697 233.436 270.263 233.771C269.834 234.101 269.505 234.56 269.278 235.147C269.051 235.729 268.937 236.401 268.937 237.161ZM278.333 241.915V232.395H279.443V241.915H278.333ZM278.897 230.759C278.674 230.759 278.48 230.682 278.315 230.529C278.153 230.372 278.073 230.184 278.073 229.965C278.073 229.746 278.153 229.56 278.315 229.408C278.48 229.251 278.674 229.172 278.897 229.172C279.124 229.172 279.319 229.251 279.48 229.408C279.645 229.56 279.728 229.746 279.728 229.965C279.728 230.184 279.645 230.372 279.48 230.529C279.319 230.682 279.124 230.759 278.897 230.759ZM283.464 229.222V241.915H282.36V229.222H283.464ZM286.395 241.915V232.395H287.505V241.915H286.395ZM286.959 230.759C286.736 230.759 286.542 230.682 286.377 230.529C286.216 230.372 286.135 230.184 286.135 229.965C286.135 229.746 286.216 229.56 286.377 229.408C286.542 229.251 286.736 229.172 286.959 229.172C287.187 229.172 287.381 229.251 287.542 229.408C287.707 229.56 287.79 229.746 287.79 229.965C287.79 230.184 287.707 230.372 287.542 230.529C287.381 230.682 287.187 230.759 286.959 230.759ZM294.172 232.395V233.356H289.629V232.395H294.172ZM291.048 230.114H292.158V239.43C292.158 239.826 292.226 240.138 292.362 240.366C292.499 240.589 292.676 240.748 292.895 240.843C293.114 240.934 293.348 240.979 293.596 240.979C293.74 240.979 293.864 240.971 293.968 240.954C294.071 240.934 294.162 240.913 294.24 240.892L294.476 241.89C294.368 241.932 294.236 241.969 294.079 242.002C293.922 242.039 293.728 242.058 293.497 242.058C293.092 242.058 292.701 241.969 292.325 241.791C291.953 241.613 291.648 241.349 291.408 240.998C291.168 240.647 291.048 240.211 291.048 239.69V230.114ZM297.446 245.479C297.227 245.479 297.023 245.458 296.833 245.417C296.643 245.376 296.492 245.33 296.38 245.281L296.678 244.301C297.24 244.483 297.713 244.485 298.097 244.308C298.485 244.134 298.81 243.69 299.07 242.975L299.417 242.008L295.915 232.395H297.112L299.938 240.459H300.025L302.851 232.395L304.053 232.414L300.018 243.421C299.849 243.876 299.638 244.256 299.386 244.562C299.138 244.867 298.853 245.097 298.531 245.25C298.209 245.403 297.847 245.479 297.446 245.479ZM308.883 236.56C308.883 238.048 308.695 239.452 308.319 240.775C307.943 242.097 307.404 243.337 306.701 244.493H305.697C305.999 244.006 306.274 243.454 306.522 242.839C306.774 242.223 306.991 241.566 307.173 240.868C307.354 240.169 307.495 239.454 307.594 238.723C307.693 237.992 307.743 237.271 307.743 236.56C307.743 235.606 307.656 234.643 307.482 233.672C307.309 232.701 307.067 231.779 306.757 230.907C306.451 230.036 306.098 229.275 305.697 228.627H306.701C307.404 229.788 307.943 231.029 308.319 232.352C308.695 233.674 308.883 235.077 308.883 236.56Z" fill="#2B2D42"/>
<path d="M242.501 203.817V202.169H252.325V203.817H248.364V214.862H246.455V203.817H242.501ZM257.069 215.054C256.131 215.054 255.323 214.854 254.646 214.453C253.972 214.048 253.452 213.48 253.084 212.749C252.72 212.013 252.538 211.152 252.538 210.164C252.538 209.189 252.72 208.329 253.084 207.586C253.452 206.842 253.964 206.261 254.621 205.844C255.282 205.427 256.055 205.218 256.939 205.218C257.476 205.218 257.997 205.307 258.501 205.484C259.005 205.662 259.457 205.941 259.858 206.321C260.259 206.701 260.575 207.195 260.807 207.803C261.038 208.406 261.154 209.139 261.154 210.003V210.66H253.586V209.271H259.338C259.338 208.784 259.238 208.352 259.04 207.976C258.842 207.596 258.563 207.296 258.203 207.077C257.848 206.858 257.431 206.749 256.951 206.749C256.431 206.749 255.976 206.877 255.588 207.133C255.204 207.385 254.906 207.716 254.695 208.125C254.489 208.53 254.385 208.97 254.385 209.445V210.53C254.385 211.166 254.497 211.707 254.72 212.154C254.947 212.6 255.263 212.941 255.668 213.176C256.073 213.408 256.546 213.523 257.088 213.523C257.439 213.523 257.759 213.474 258.048 213.375C258.338 213.271 258.588 213.118 258.798 212.916C259.009 212.713 259.17 212.463 259.282 212.166L261.036 212.482C260.895 212.999 260.643 213.451 260.28 213.839C259.92 214.224 259.468 214.523 258.922 214.738C258.381 214.949 257.763 215.054 257.069 215.054ZM267.22 215.054C266.298 215.054 265.505 214.846 264.84 214.428C264.179 214.007 263.671 213.426 263.315 212.687C262.96 211.947 262.782 211.1 262.782 210.145C262.782 209.178 262.964 208.325 263.328 207.586C263.691 206.842 264.204 206.261 264.865 205.844C265.526 205.427 266.305 205.218 267.201 205.218C267.924 205.218 268.569 205.352 269.135 205.621C269.701 205.885 270.158 206.257 270.505 206.736C270.856 207.216 271.065 207.776 271.131 208.416H269.327C269.228 207.97 269.001 207.586 268.645 207.263C268.294 206.941 267.823 206.78 267.232 206.78C266.716 206.78 266.263 206.916 265.875 207.189C265.491 207.458 265.191 207.842 264.976 208.342C264.761 208.838 264.654 209.424 264.654 210.102C264.654 210.796 264.759 211.395 264.97 211.899C265.181 212.404 265.478 212.794 265.863 213.071C266.251 213.348 266.708 213.486 267.232 213.486C267.584 213.486 267.902 213.422 268.187 213.294C268.476 213.162 268.718 212.974 268.912 212.73C269.11 212.486 269.249 212.193 269.327 211.85H271.131C271.065 212.465 270.864 213.015 270.53 213.498C270.195 213.982 269.747 214.362 269.185 214.639C268.627 214.916 267.972 215.054 267.22 215.054ZM274.966 209.209V214.862H273.113V202.169H274.941V206.891H275.059C275.282 206.379 275.623 205.972 276.082 205.67C276.54 205.369 277.139 205.218 277.879 205.218C278.532 205.218 279.102 205.352 279.59 205.621C280.081 205.889 280.461 206.29 280.73 206.823C281.003 207.352 281.139 208.013 281.139 208.807V214.862H279.286V209.03C279.286 208.331 279.106 207.79 278.747 207.406C278.387 207.017 277.887 206.823 277.247 206.823C276.809 206.823 276.416 206.916 276.069 207.102C275.726 207.288 275.456 207.561 275.257 207.92C275.063 208.276 274.966 208.705 274.966 209.209Z" fill="#2B2D42"/>
<path d="M31.5863 235.568C31.5863 234.081 31.7743 232.676 32.1503 231.354C32.5264 230.031 33.0656 228.792 33.768 227.635H34.7721C34.4705 228.122 34.1936 228.674 33.9416 229.29C33.6936 229.905 33.4788 230.562 33.297 231.261C33.1152 231.959 32.9747 232.674 32.8755 233.405C32.7763 234.132 32.7268 234.854 32.7268 235.568C32.7268 236.523 32.8135 237.486 32.9871 238.457C33.1606 239.428 33.4003 240.349 33.706 241.221C34.0159 242.093 34.3713 242.853 34.7721 243.502H33.768C33.0656 242.341 32.5264 241.099 32.1503 239.777C31.7743 238.455 31.5863 237.052 31.5863 235.568ZM37.4264 229.222L41.3931 240.409H41.5047L45.4714 229.222H46.6862L42.0687 241.915H40.8291L36.2116 229.222H37.4264ZM48.6448 241.915V232.395H49.7542V241.915H48.6448ZM49.2088 230.759C48.9857 230.759 48.7915 230.682 48.6262 230.529C48.465 230.372 48.3845 230.184 48.3845 229.965C48.3845 229.746 48.465 229.56 48.6262 229.408C48.7915 229.251 48.9857 229.172 49.2088 229.172C49.4361 229.172 49.6303 229.251 49.7914 229.408C49.9567 229.56 50.0393 229.746 50.0393 229.965C50.0393 230.184 49.9567 230.372 49.7914 230.529C49.6303 230.682 49.4361 230.759 49.2088 230.759ZM55.3309 242.132C54.7565 242.132 54.2318 242.02 53.7566 241.797C53.2814 241.57 52.9033 241.244 52.6224 240.818C52.3414 240.388 52.2009 239.868 52.2009 239.256C52.2009 238.785 52.2897 238.388 52.4674 238.066C52.6451 237.744 52.8971 237.479 53.2236 237.273C53.55 237.066 53.9363 236.903 54.3826 236.783C54.8288 236.663 55.3205 236.57 55.8577 236.504C56.3907 236.438 56.8411 236.38 57.2089 236.331C57.5808 236.281 57.8638 236.203 58.058 236.095C58.2522 235.988 58.3493 235.814 58.3493 235.575V235.351C58.3493 234.703 58.1551 234.192 57.7667 233.821C57.3824 233.444 56.8287 233.256 56.1056 233.256C55.4197 233.256 54.8598 233.407 54.426 233.709C53.9962 234.011 53.6946 234.366 53.5211 234.775L52.4736 234.397C52.6885 233.876 52.986 233.461 53.3661 233.151C53.7463 232.837 54.1719 232.612 54.6429 232.476C55.1139 232.335 55.5912 232.265 56.0746 232.265C56.4383 232.265 56.8163 232.312 57.2089 232.407C57.6055 232.502 57.9733 232.668 58.3121 232.903C58.6509 233.135 58.9257 233.459 59.1365 233.876C59.3472 234.289 59.4526 234.814 59.4526 235.451V241.915H58.3493V240.409H58.2811C58.1489 240.69 57.9526 240.963 57.6923 241.227C57.432 241.492 57.1056 241.708 56.713 241.878C56.3205 242.047 55.8598 242.132 55.3309 242.132ZM55.4796 241.122C56.0664 241.122 56.5746 240.992 57.0043 240.731C57.4341 240.471 57.7646 240.126 57.996 239.696C58.2315 239.262 58.3493 238.785 58.3493 238.264V236.889C58.2667 236.967 58.1282 237.037 57.934 237.099C57.744 237.161 57.5229 237.217 57.2709 237.267C57.0229 237.312 56.775 237.351 56.5271 237.384C56.2792 237.417 56.056 237.446 55.8577 237.471C55.3205 237.537 54.8619 237.641 54.4818 237.781C54.1016 237.922 53.8103 238.116 53.6078 238.364C53.4054 238.607 53.3041 238.921 53.3041 239.306C53.3041 239.884 53.5107 240.333 53.9239 240.651C54.3371 240.965 54.8557 241.122 55.4796 241.122ZM62.6166 241.915V229.222H63.7261V234.211H63.8252C63.9492 233.926 64.1269 233.633 64.3583 233.331C64.5938 233.029 64.9016 232.777 65.2818 232.575C65.666 232.368 66.1495 232.265 66.7321 232.265C67.5131 232.265 68.199 232.471 68.7898 232.885C69.3807 233.294 69.8414 233.868 70.172 234.608C70.5026 235.343 70.6678 236.201 70.6678 237.18C70.6678 238.163 70.5026 239.025 70.172 239.764C69.8456 240.504 69.3869 241.08 68.796 241.494C68.2093 241.907 67.5275 242.113 66.7507 242.113C66.1722 242.113 65.6888 242.01 65.3004 241.804C64.9161 241.597 64.6062 241.343 64.3707 241.041C64.1351 240.735 63.9533 240.438 63.8252 240.149H63.6889V241.915H62.6166ZM63.7075 237.161C63.7075 237.93 63.8211 238.612 64.0484 239.207C64.2798 239.797 64.6103 240.262 65.0401 240.601C65.4739 240.936 65.9987 241.103 66.6143 241.103C67.2465 241.103 67.7816 240.93 68.2196 240.583C68.6576 240.231 68.9902 239.758 69.2175 239.163C69.4448 238.568 69.5584 237.901 69.5584 237.161C69.5584 236.43 69.4448 235.771 69.2175 235.184C68.9944 234.597 68.6638 234.132 68.2258 233.79C67.7878 233.442 67.2507 233.269 66.6143 233.269C65.9945 233.269 65.4677 233.436 65.0339 233.771C64.6041 234.101 64.2756 234.56 64.0484 235.147C63.8211 235.729 63.7075 236.401 63.7075 237.161ZM73.1037 241.915V232.395H74.2131V241.915H73.1037ZM73.6677 230.759C73.4445 230.759 73.2503 230.682 73.0851 230.529C72.9239 230.372 72.8433 230.184 72.8433 229.965C72.8433 229.746 72.9239 229.56 73.0851 229.408C73.2503 229.251 73.4445 229.172 73.6677 229.172C73.8949 229.172 74.0891 229.251 74.2503 229.408C74.4156 229.56 74.4982 229.746 74.4982 229.965C74.4982 230.184 74.4156 230.372 74.2503 230.529C74.0891 230.682 73.8949 230.759 73.6677 230.759ZM78.2341 229.222V241.915H77.1308V229.222H78.2341ZM81.1657 241.915V232.395H82.2752V241.915H81.1657ZM81.7297 230.759C81.5066 230.759 81.3124 230.682 81.1471 230.529C80.986 230.372 80.9054 230.184 80.9054 229.965C80.9054 229.746 80.986 229.56 81.1471 229.408C81.3124 229.251 81.5066 229.172 81.7297 229.172C81.957 229.172 82.1512 229.251 82.3123 229.408C82.4776 229.56 82.5603 229.746 82.5603 229.965C82.5603 230.184 82.4776 230.372 82.3123 230.529C82.1512 230.682 81.957 230.759 81.7297 230.759ZM88.9427 232.395V233.356H84.3995V232.395H88.9427ZM85.8189 230.114H86.9283V239.43C86.9283 239.826 86.9965 240.138 87.1328 240.366C87.2692 240.589 87.4469 240.748 87.6659 240.843C87.8849 240.934 88.1183 240.979 88.3662 240.979C88.5109 240.979 88.6348 240.971 88.7381 240.954C88.8414 240.934 88.9323 240.913 89.0108 240.892L89.2464 241.89C89.1389 241.932 89.0067 241.969 88.8497 242.002C88.6927 242.039 88.4985 242.058 88.2671 242.058C87.8621 242.058 87.4717 241.969 87.0956 241.791C86.7238 241.613 86.418 241.349 86.1783 240.998C85.9387 240.647 85.8189 240.211 85.8189 239.69V230.114ZM92.2167 245.479C91.9978 245.479 91.7932 245.458 91.6031 245.417C91.4131 245.376 91.2623 245.33 91.1507 245.281L91.4482 244.301C92.0101 244.483 92.4833 244.485 92.8675 244.308C93.2559 244.134 93.5803 243.69 93.8406 242.975L94.1877 242.008L90.6858 232.395H91.8821L94.7083 240.459H94.7951L97.6214 232.395L98.8238 232.414L94.7889 243.421C94.6195 243.876 94.4088 244.256 94.1567 244.562C93.9088 244.867 93.6237 245.097 93.3014 245.25C92.9791 245.403 92.6176 245.479 92.2167 245.479ZM103.654 236.56C103.654 238.048 103.466 239.452 103.09 240.775C102.714 242.097 102.174 243.337 101.472 244.493H100.468C100.769 244.006 101.044 243.454 101.292 242.839C101.544 242.223 101.761 241.566 101.943 240.868C102.125 240.169 102.265 239.454 102.364 238.723C102.464 237.992 102.513 237.271 102.513 236.56C102.513 235.606 102.426 234.643 102.253 233.672C102.079 232.701 101.838 231.779 101.528 230.907C101.222 230.036 100.869 229.275 100.468 228.627H101.472C102.174 229.788 102.714 231.029 103.09 232.352C103.466 233.674 103.654 235.077 103.654 236.56Z" fill="#2B2D42"/>
<path d="M31.9383 214.862V202.169H36.5868C37.4875 202.169 38.2334 202.317 38.8242 202.615C39.4151 202.908 39.8572 203.307 40.1506 203.811C40.444 204.311 40.5907 204.875 40.5907 205.503C40.5907 206.032 40.4936 206.478 40.2994 206.842C40.1052 207.201 39.8448 207.491 39.5184 207.71C39.1961 207.924 38.8408 208.081 38.4524 208.181V208.305C38.8738 208.325 39.285 208.462 39.6858 208.714C40.0907 208.962 40.4254 209.315 40.6898 209.773C40.9543 210.232 41.0865 210.79 41.0865 211.447C41.0865 212.096 40.9336 212.678 40.6279 213.195C40.3262 213.707 39.8593 214.114 39.2271 214.416C38.5949 214.713 37.7871 214.862 36.8037 214.862H31.9383ZM33.8534 213.22H36.6177C37.535 213.22 38.192 213.042 38.5887 212.687C38.9854 212.331 39.1837 211.887 39.1837 211.354C39.1837 210.953 39.0825 210.585 38.88 210.251C38.6775 209.916 38.3883 209.65 38.0123 209.451C37.6404 209.253 37.1983 209.154 36.6859 209.154H33.8534V213.22ZM33.8534 207.66H36.4194C36.8491 207.66 37.2355 207.577 37.5784 207.412C37.9255 207.247 38.2003 207.015 38.4028 206.718C38.6094 206.416 38.7127 206.061 38.7127 205.652C38.7127 205.127 38.5288 204.687 38.161 204.332C37.7933 203.976 37.2293 203.799 36.469 203.799H33.8534V207.66ZM49.24 210.914V205.342H51.0994V214.862H49.2772V213.213H49.178C48.959 213.722 48.6078 214.145 48.1243 214.484C47.645 214.819 47.048 214.986 46.3331 214.986C45.7216 214.986 45.1803 214.852 44.7092 214.583C44.2423 214.31 43.8746 213.908 43.606 213.375C43.3415 212.842 43.2093 212.182 43.2093 211.397V205.342H45.0625V211.174C45.0625 211.823 45.2423 212.339 45.6018 212.724C45.9612 213.108 46.4282 213.3 47.0025 213.3C47.3496 213.3 47.6946 213.213 48.0376 213.04C48.3847 212.866 48.6718 212.604 48.8991 212.253C49.1305 211.901 49.2441 211.455 49.24 210.914ZM60.7233 207.666L59.0437 207.964C58.9734 207.749 58.8619 207.544 58.709 207.35C58.5602 207.156 58.3578 206.997 58.1016 206.873C57.8454 206.749 57.5252 206.687 57.1409 206.687C56.6161 206.687 56.1781 206.805 55.8269 207.04C55.4757 207.272 55.3001 207.571 55.3001 207.939C55.3001 208.257 55.4178 208.513 55.6534 208.707C55.8889 208.902 56.269 209.061 56.7938 209.185L58.3061 209.532C59.1821 209.734 59.835 210.046 60.2647 210.468C60.6944 210.889 60.9093 211.437 60.9093 212.11C60.9093 212.68 60.744 213.189 60.4134 213.635C60.087 214.077 59.6304 214.424 59.0437 214.676C58.4611 214.928 57.7855 215.054 57.0169 215.054C55.9509 215.054 55.0811 214.827 54.4076 214.372C53.734 213.914 53.3208 213.263 53.168 212.42L54.9592 212.147C55.0708 212.614 55.3001 212.968 55.6472 213.207C55.9943 213.443 56.4467 213.56 57.0045 213.56C57.6119 213.56 58.0974 213.434 58.4611 213.182C58.8247 212.926 59.0065 212.614 59.0065 212.247C59.0065 211.949 58.8949 211.699 58.6718 211.497C58.4528 211.294 58.116 211.141 57.6615 211.038L56.05 210.685C55.1617 210.482 54.5047 210.16 54.0791 209.718C53.6576 209.276 53.4469 208.716 53.4469 208.038C53.4469 207.476 53.6039 206.984 53.9179 206.563C54.232 206.141 54.6658 205.813 55.2195 205.577C55.7732 205.338 56.4075 205.218 57.1223 205.218C58.1512 205.218 58.961 205.441 59.5519 205.887C60.1428 206.329 60.5333 206.922 60.7233 207.666ZM62.9469 214.862V205.342H64.8001V214.862H62.9469ZM63.8828 203.873C63.5605 203.873 63.2836 203.766 63.0522 203.551C62.825 203.332 62.7113 203.071 62.7113 202.77C62.7113 202.464 62.825 202.204 63.0522 201.989C63.2836 201.77 63.5605 201.66 63.8828 201.66C64.2051 201.66 64.4798 201.77 64.7071 201.989C64.9385 202.204 65.0542 202.464 65.0542 202.77C65.0542 203.071 64.9385 203.332 64.7071 203.551C64.4798 203.766 64.2051 203.873 63.8828 203.873ZM69.1464 209.209V214.862H67.2932V205.342H69.072V206.891H69.1898C69.4088 206.387 69.7518 205.982 70.2187 205.677C70.6897 205.371 71.2827 205.218 71.9975 205.218C72.6462 205.218 73.2144 205.354 73.702 205.627C74.1895 205.896 74.5676 206.296 74.8362 206.829C75.1048 207.362 75.2391 208.022 75.2391 208.807V214.862H73.3859V209.03C73.3859 208.34 73.2061 207.8 72.8466 207.412C72.4871 207.02 71.9934 206.823 71.3653 206.823C70.9356 206.823 70.5534 206.916 70.2187 207.102C69.8881 207.288 69.6257 207.561 69.4315 207.92C69.2415 208.276 69.1464 208.705 69.1464 209.209ZM81.8275 215.054C80.8896 215.054 80.0818 214.854 79.4041 214.453C78.7306 214.048 78.21 213.48 77.8422 212.749C77.4786 212.013 77.2968 211.152 77.2968 210.164C77.2968 209.189 77.4786 208.329 77.8422 207.586C78.21 206.842 78.7223 206.261 79.3793 205.844C80.0404 205.427 80.8131 205.218 81.6974 205.218C82.2345 205.218 82.7552 205.307 83.2593 205.484C83.7634 205.662 84.2158 205.941 84.6166 206.321C85.0174 206.701 85.3335 207.195 85.5649 207.803C85.7963 208.406 85.912 209.139 85.912 210.003V210.66H78.3443V209.271H84.096C84.096 208.784 83.9968 208.352 83.7985 207.976C83.6002 207.596 83.3213 207.296 82.9618 207.077C82.6064 206.858 82.1891 206.749 81.7098 206.749C81.1891 206.749 80.7346 206.877 80.3462 207.133C79.9619 207.385 79.6644 207.716 79.4537 208.125C79.2471 208.53 79.1438 208.97 79.1438 209.445V210.53C79.1438 211.166 79.2554 211.707 79.4785 212.154C79.7058 212.6 80.0218 212.941 80.4268 213.176C80.8317 213.408 81.3048 213.523 81.8461 213.523C82.1973 213.523 82.5176 213.474 82.8068 213.375C83.0961 213.271 83.346 213.118 83.5568 212.916C83.7675 212.713 83.9287 212.463 84.0402 212.166L85.7943 212.482C85.6538 212.999 85.4017 213.451 85.0381 213.839C84.6786 214.224 84.2262 214.523 83.6807 214.738C83.1394 214.949 82.5217 215.054 81.8275 215.054ZM95.1021 207.666L93.4225 207.964C93.3522 207.749 93.2406 207.544 93.0878 207.35C92.939 207.156 92.7365 206.997 92.4804 206.873C92.2242 206.749 91.9039 206.687 91.5197 206.687C90.9949 206.687 90.5569 206.805 90.2057 207.04C89.8545 207.272 89.6789 207.571 89.6789 207.939C89.6789 208.257 89.7966 208.513 90.0321 208.707C90.2677 208.902 90.6478 209.061 91.1726 209.185L92.6849 209.532C93.5609 209.734 94.2137 210.046 94.6435 210.468C95.0732 210.889 95.288 211.437 95.288 212.11C95.288 212.68 95.1228 213.189 94.7922 213.635C94.4658 214.077 94.0092 214.424 93.4225 214.676C92.8398 214.928 92.1643 215.054 91.3957 215.054C90.3296 215.054 89.4599 214.827 88.7863 214.372C88.1128 213.914 87.6996 213.263 87.5467 212.42L89.338 212.147C89.4495 212.614 89.6789 212.968 90.0259 213.207C90.373 213.443 90.8255 213.56 91.3833 213.56C91.9907 213.56 92.4762 213.434 92.8398 213.182C93.2035 212.926 93.3853 212.614 93.3853 212.247C93.3853 211.949 93.2737 211.699 93.0506 211.497C92.8316 211.294 92.4948 211.141 92.0403 211.038L90.4288 210.685C89.5404 210.482 88.8834 210.16 88.4578 209.718C88.0364 209.276 87.8257 208.716 87.8257 208.038C87.8257 207.476 87.9827 206.984 88.2967 206.563C88.6107 206.141 89.0446 205.813 89.5983 205.577C90.152 205.338 90.7862 205.218 91.5011 205.218C92.5299 205.218 93.3398 205.441 93.9307 205.887C94.5216 206.329 94.912 206.922 95.1021 207.666ZM104.46 207.666L102.78 207.964C102.71 207.749 102.598 207.544 102.445 207.35C102.296 207.156 102.094 206.997 101.838 206.873C101.582 206.749 101.261 206.687 100.877 206.687C100.352 206.687 99.9143 206.805 99.5631 207.04C99.2119 207.272 99.0363 207.571 99.0363 207.939C99.0363 208.257 99.1541 208.513 99.3896 208.707C99.6251 208.902 100.005 209.061 100.53 209.185L102.042 209.532C102.918 209.734 103.571 210.046 104.001 210.468C104.431 210.889 104.645 211.437 104.645 212.11C104.645 212.68 104.48 213.189 104.15 213.635C103.823 214.077 103.367 214.424 102.78 214.676C102.197 214.928 101.522 215.054 100.753 215.054C99.6871 215.054 98.8173 214.827 98.1438 214.372C97.4703 213.914 97.0571 213.263 96.9042 212.42L98.6954 212.147C98.807 212.614 99.0363 212.968 99.3834 213.207C99.7305 213.443 100.183 213.56 100.741 213.56C101.348 213.56 101.834 213.434 102.197 213.182C102.561 212.926 102.743 212.614 102.743 212.247C102.743 211.949 102.631 211.699 102.408 211.497C102.189 211.294 101.852 211.141 101.398 211.038L99.7862 210.685C98.8979 210.482 98.2409 210.16 97.8153 209.718C97.3938 209.276 97.1831 208.716 97.1831 208.038C97.1831 207.476 97.3401 206.984 97.6541 206.563C97.9682 206.141 98.402 205.813 98.9557 205.577C99.5094 205.338 100.144 205.218 100.859 205.218C101.887 205.218 102.697 205.441 103.288 205.887C103.879 206.329 104.269 206.922 104.46 207.666Z" fill="#2B2D42"/>
<path d="M115.363 80.2315C115.363 78.744 115.551 77.3391 115.927 76.0168C116.303 74.6946 116.843 73.455 117.545 72.298H118.549C118.248 72.7856 117.971 73.3372 117.719 73.9529C117.471 74.5686 117.256 75.2256 117.074 75.9239C116.892 76.6222 116.752 77.337 116.653 78.0684C116.553 78.7956 116.504 79.5167 116.504 80.2315C116.504 81.186 116.591 82.1487 116.764 83.1198C116.938 84.0908 117.177 85.0122 117.483 85.8841C117.793 86.7559 118.148 87.5162 118.549 88.1649H117.545C116.843 87.0038 116.303 85.7622 115.927 84.4399C115.551 83.1177 115.363 81.7149 115.363 80.2315ZM124.904 86.5782H121.185V73.8847H125.127C126.338 73.8847 127.373 74.1368 128.232 74.6409C129.096 75.145 129.757 75.8681 130.215 76.8102C130.674 77.7523 130.903 78.8824 130.903 80.2005C130.903 81.531 130.668 82.6735 130.197 83.628C129.73 84.5784 129.048 85.3077 128.151 85.8159C127.259 86.3241 126.176 86.5782 124.904 86.5782ZM122.344 85.537H124.836C125.926 85.537 126.84 85.3221 127.575 84.8924C128.311 84.4627 128.862 83.8491 129.23 83.0516C129.598 82.2541 129.782 81.3037 129.782 80.2005C129.777 79.1055 129.596 78.1634 129.236 77.3742C128.881 76.585 128.352 75.9797 127.649 75.5582C126.951 75.1367 126.088 74.926 125.059 74.926H122.344V85.537ZM137.332 86.7766C136.444 86.7766 135.675 86.57 135.027 86.1568C134.378 85.7395 133.876 85.163 133.52 84.4275C133.169 83.6879 132.994 82.8367 132.994 81.874C132.994 80.9153 133.169 80.0641 133.52 79.3204C133.876 78.5725 134.365 77.9878 134.989 77.5663C135.617 77.1408 136.343 76.928 137.165 76.928C137.681 76.928 138.179 77.023 138.659 77.2131C139.138 77.399 139.568 77.6862 139.948 78.0746C140.332 78.4589 140.636 78.9444 140.859 79.5311C141.082 80.1137 141.194 80.8038 141.194 81.6012V82.1467H133.756V81.1736H140.066C140.066 80.5621 139.942 80.0125 139.694 79.5249C139.45 79.0332 139.109 78.6448 138.671 78.3597C138.237 78.0746 137.735 77.932 137.165 77.932C136.562 77.932 136.031 78.0932 135.572 78.4155C135.113 78.7378 134.754 79.1634 134.494 79.6923C134.237 80.2212 134.107 80.7996 134.103 81.4277V82.0103C134.103 82.7665 134.233 83.4276 134.494 83.9937C134.758 84.5556 135.132 84.9916 135.615 85.3015C136.099 85.6114 136.671 85.7663 137.332 85.7663C137.783 85.7663 138.177 85.6961 138.516 85.5556C138.859 85.4151 139.146 85.2271 139.378 84.9916C139.613 84.7519 139.791 84.4895 139.911 84.2044L140.958 84.5453C140.813 84.9461 140.576 85.3159 140.245 85.6547C139.919 85.9936 139.51 86.2663 139.018 86.4729C138.531 86.6753 137.969 86.7766 137.332 86.7766ZM150.021 79.1468L149.011 79.4319C148.912 79.1468 148.771 78.8886 148.589 78.6572C148.408 78.4258 148.17 78.2419 147.877 78.1056C147.587 77.9692 147.228 77.901 146.798 77.901C146.154 77.901 145.625 78.0539 145.211 78.3597C144.798 78.6655 144.592 79.0601 144.592 79.5435C144.592 79.9526 144.732 80.2852 145.013 80.5414C145.298 80.7934 145.736 80.9938 146.327 81.1426L147.765 81.4959C148.563 81.6901 149.16 81.9979 149.556 82.4194C149.957 82.8409 150.157 83.3697 150.157 84.0061C150.157 84.5432 150.009 85.0205 149.711 85.4378C149.414 85.8551 148.998 86.1836 148.465 86.4233C147.937 86.6588 147.323 86.7766 146.625 86.7766C145.695 86.7766 144.928 86.5679 144.325 86.1506C143.722 85.7291 143.336 85.1217 143.166 84.3284L144.226 84.0681C144.362 84.6341 144.629 85.0618 145.026 85.351C145.426 85.6403 145.953 85.7849 146.606 85.7849C147.337 85.7849 147.922 85.6217 148.36 85.2953C148.798 84.9647 149.017 84.5515 149.017 84.0557C149.017 83.6714 148.889 83.3491 148.633 83.0888C148.377 82.8243 147.988 82.6301 147.468 82.5062L145.912 82.1343C145.085 81.9359 144.474 81.6219 144.077 81.1922C143.681 80.7625 143.482 80.2294 143.482 79.5931C143.482 79.0683 143.625 78.6076 143.91 78.2109C144.195 77.8101 144.588 77.4961 145.088 77.2688C145.587 77.0416 146.158 76.928 146.798 76.928C147.67 76.928 148.366 77.1263 148.887 77.523C149.412 77.9155 149.79 78.4568 150.021 79.1468ZM152.586 86.5782V77.0581H153.695V86.5782H152.586ZM153.15 75.4218C152.926 75.4218 152.732 75.3454 152.567 75.1925C152.406 75.0355 152.325 74.8475 152.325 74.6285C152.325 74.4095 152.406 74.2236 152.567 74.0707C152.732 73.9137 152.926 73.8352 153.15 73.8352C153.377 73.8352 153.571 73.9137 153.732 74.0707C153.897 74.2236 153.98 74.4095 153.98 74.6285C153.98 74.8475 153.897 75.0355 153.732 75.1925C153.571 75.3454 153.377 75.4218 153.15 75.4218ZM156.613 86.5782V77.0581H157.685V78.5208H157.766C157.956 78.0415 158.286 77.6552 158.757 77.3618C159.232 77.0643 159.77 76.9156 160.369 76.9156C160.46 76.9156 160.561 76.9176 160.672 76.9218C160.784 76.9259 160.877 76.93 160.951 76.9342V78.056C160.902 78.0477 160.815 78.0353 160.691 78.0188C160.567 78.0023 160.433 77.994 160.288 77.994C159.792 77.994 159.35 78.0994 158.962 78.3101C158.577 78.5167 158.274 78.8039 158.051 79.1716C157.827 79.5394 157.716 79.9588 157.716 80.4298V86.5782H156.613ZM165.493 86.7952C164.919 86.7952 164.394 86.6836 163.919 86.4605C163.443 86.2332 163.065 85.9068 162.784 85.4812C162.503 85.0515 162.363 84.5308 162.363 83.9193C162.363 83.4483 162.452 83.0516 162.629 82.7293C162.807 82.407 163.059 82.1425 163.386 81.9359C163.712 81.7293 164.098 81.5661 164.545 81.4463C164.991 81.3265 165.483 81.2335 166.02 81.1674C166.553 81.1013 167.003 81.0434 167.371 80.9938C167.743 80.9443 168.026 80.8658 168.22 80.7583C168.414 80.6509 168.511 80.4773 168.511 80.2377V80.0146C168.511 79.3658 168.317 78.8555 167.929 78.4837C167.544 78.1076 166.991 77.9196 166.268 77.9196C165.582 77.9196 165.022 78.0705 164.588 78.3721C164.158 78.6737 163.857 79.0291 163.683 79.4381L162.636 79.0601C162.85 78.5394 163.148 78.1242 163.528 77.8143C163.908 77.5002 164.334 77.275 164.805 77.1387C165.276 76.9982 165.753 76.928 166.237 76.928C166.6 76.928 166.978 76.9755 167.371 77.0705C167.768 77.1655 168.135 77.3308 168.474 77.5663C168.813 77.7977 169.088 78.1221 169.298 78.5394C169.509 78.9526 169.615 79.4774 169.615 80.1137V86.5782H168.511V85.0721H168.443C168.311 85.3531 168.115 85.6258 167.854 85.8903C167.594 86.1547 167.268 86.3716 166.875 86.5411C166.482 86.7105 166.022 86.7952 165.493 86.7952ZM165.642 85.7849C166.228 85.7849 166.737 85.6547 167.166 85.3944C167.596 85.1341 167.927 84.7891 168.158 84.3594C168.394 83.9255 168.511 83.4483 168.511 82.9276V81.5517C168.429 81.6302 168.29 81.7004 168.096 81.7624C167.906 81.8244 167.685 81.8802 167.433 81.9297C167.185 81.9752 166.937 82.0144 166.689 82.0475C166.441 82.0806 166.218 82.1095 166.02 82.1343C165.483 82.2004 165.024 82.3037 164.644 82.4442C164.264 82.5847 163.972 82.7789 163.77 83.0268C163.567 83.2706 163.466 83.5846 163.466 83.9689C163.466 84.5474 163.673 84.9957 164.086 85.3139C164.499 85.6279 165.018 85.7849 165.642 85.7849ZM172.779 86.5782V73.8847H173.888V78.8741H173.987C174.111 78.589 174.289 78.2956 174.52 77.994C174.756 77.6924 175.064 77.4403 175.444 77.2379C175.828 77.0313 176.311 76.928 176.894 76.928C177.675 76.928 178.361 77.1346 178.952 77.5478C179.543 77.9568 180.003 78.5312 180.334 79.2708C180.665 80.0063 180.83 80.8637 180.83 81.843C180.83 82.8264 180.665 83.6879 180.334 84.4275C180.008 85.1672 179.549 85.7436 178.958 86.1568C178.371 86.57 177.69 86.7766 176.913 86.7766C176.334 86.7766 175.851 86.6733 175.462 86.4667C175.078 86.2601 174.768 86.006 174.533 85.7043C174.297 85.3986 174.115 85.1011 173.987 84.8118H173.851V86.5782H172.779ZM173.869 81.8244C173.869 82.5929 173.983 83.2747 174.21 83.8697C174.442 84.4606 174.772 84.9254 175.202 85.2643C175.636 85.599 176.161 85.7663 176.776 85.7663C177.409 85.7663 177.944 85.5928 178.382 85.2457C178.82 84.8945 179.152 84.4213 179.38 83.8263C179.607 83.2313 179.72 82.564 179.72 81.8244C179.72 81.093 179.607 80.434 179.38 79.8472C179.156 79.2605 178.826 78.7956 178.388 78.4527C177.95 78.1056 177.413 77.932 176.776 77.932C176.157 77.932 175.63 78.0994 175.196 78.4341C174.766 78.7646 174.438 79.2233 174.21 79.81C173.983 80.3926 173.869 81.0641 173.869 81.8244ZM183.266 86.5782V77.0581H184.375V86.5782H183.266ZM183.83 75.4218C183.607 75.4218 183.412 75.3454 183.247 75.1925C183.086 75.0355 183.005 74.8475 183.005 74.6285C183.005 74.4095 183.086 74.2236 183.247 74.0707C183.412 73.9137 183.607 73.8352 183.83 73.8352C184.057 73.8352 184.251 73.9137 184.412 74.0707C184.578 74.2236 184.66 74.4095 184.66 74.6285C184.66 74.8475 184.578 75.0355 184.412 75.1925C184.251 75.3454 184.057 75.4218 183.83 75.4218ZM188.396 73.8847V86.5782H187.293V73.8847H188.396ZM191.328 86.5782V77.0581H192.437V86.5782H191.328ZM191.892 75.4218C191.669 75.4218 191.474 75.3454 191.309 75.1925C191.148 75.0355 191.067 74.8475 191.067 74.6285C191.067 74.4095 191.148 74.2236 191.309 74.0707C191.474 73.9137 191.669 73.8352 191.892 73.8352C192.119 73.8352 192.313 73.9137 192.474 74.0707C192.64 74.2236 192.722 74.4095 192.722 74.6285C192.722 74.8475 192.64 75.0355 192.474 75.1925C192.313 75.3454 192.119 75.4218 191.892 75.4218ZM199.105 77.0581V78.0188H194.562V77.0581H199.105ZM195.981 74.7772H197.09V84.0928C197.09 84.4895 197.158 84.8015 197.295 85.0287C197.431 85.2519 197.609 85.411 197.828 85.506C198.047 85.5969 198.28 85.6423 198.528 85.6423C198.673 85.6423 198.797 85.6341 198.9 85.6176C199.003 85.5969 199.094 85.5762 199.173 85.5556L199.408 86.5535C199.301 86.5948 199.169 86.632 199.012 86.665C198.855 86.7022 198.66 86.7208 198.429 86.7208C198.024 86.7208 197.634 86.632 197.258 86.4543C196.886 86.2766 196.58 86.0122 196.34 85.6609C196.101 85.3097 195.981 84.8738 195.981 84.3532V74.7772ZM202.379 90.1421C202.16 90.1421 201.955 90.1214 201.765 90.0801C201.575 90.0388 201.424 89.9933 201.313 89.9438L201.61 88.9645C202.172 89.1463 202.645 89.1484 203.03 88.9707C203.418 88.7971 203.742 88.3529 204.003 87.6381L204.35 86.6712L200.848 77.0581H202.044L204.87 85.1217H204.957L207.783 77.0581L208.986 77.0767L204.951 88.0844C204.782 88.5389 204.571 88.919 204.319 89.2248C204.071 89.5306 203.786 89.7599 203.463 89.9128C203.141 90.0657 202.78 90.1421 202.379 90.1421ZM213.816 81.2232C213.816 82.7107 213.628 84.1156 213.252 85.4378C212.876 86.7601 212.336 87.9997 211.634 89.1566H210.63C210.931 88.669 211.206 88.1174 211.454 87.5017C211.706 86.8861 211.923 86.2291 212.105 85.5308C212.287 84.8325 212.427 84.1176 212.526 83.3863C212.626 82.6549 212.675 81.9339 212.675 81.2232C212.675 80.2687 212.588 79.3059 212.415 78.3349C212.241 77.3639 212 76.4424 211.69 75.5706C211.384 74.6987 211.031 73.9385 210.63 73.2897H211.634C212.336 74.4508 212.876 75.6925 213.252 77.0147C213.628 78.337 213.816 79.7398 213.816 81.2232Z" fill="#2B2D42"/>
<path d="M137.532 59.5252V46.8317H142.057C143.045 46.8317 143.863 47.0114 144.511 47.3709C145.16 47.7304 145.646 48.2221 145.968 48.846C146.29 49.4658 146.451 50.1642 146.451 50.941C146.451 51.7219 146.288 52.4244 145.962 53.0483C145.639 53.6681 145.152 54.1598 144.499 54.5234C143.85 54.8829 143.034 55.0626 142.051 55.0626H138.939V53.4388H141.877C142.501 53.4388 143.007 53.3313 143.396 53.1165C143.784 52.8975 144.069 52.6 144.251 52.224C144.433 51.8479 144.524 51.4203 144.524 50.941C144.524 50.4617 144.433 50.0361 144.251 49.6642C144.069 49.2923 143.782 49.001 143.39 48.7903C143.001 48.5795 142.489 48.4742 141.852 48.4742H139.448V59.5252H137.532ZM152.532 59.7173C151.594 59.7173 150.786 59.5169 150.108 59.1161C149.435 58.7112 148.914 58.1431 148.546 57.4117C148.183 56.6762 148.001 55.8147 148.001 54.8271C148.001 53.852 148.183 52.9925 148.546 52.2488C148.914 51.505 149.426 50.9244 150.083 50.5071C150.745 50.0898 151.517 49.8811 152.402 49.8811C152.939 49.8811 153.459 49.97 153.963 50.1476C154.468 50.3253 154.92 50.6042 155.321 50.9844C155.722 51.3645 156.038 51.8583 156.269 52.4657C156.5 53.069 156.616 53.8024 156.616 54.666V55.323H149.048V53.9346H154.8C154.8 53.447 154.701 53.0152 154.503 52.6392C154.304 52.2591 154.025 51.9595 153.666 51.7405C153.311 51.5215 152.893 51.412 152.414 51.412C151.893 51.412 151.439 51.5401 151.05 51.7963C150.666 52.0483 150.369 52.3789 150.158 52.788C149.951 53.1929 149.848 53.633 149.848 54.1082V55.1928C149.848 55.8291 149.959 56.3704 150.183 56.8167C150.41 57.2629 150.726 57.6038 151.131 57.8394C151.536 58.0707 152.009 58.1864 152.55 58.1864C152.901 58.1864 153.222 58.1369 153.511 58.0377C153.8 57.9344 154.05 57.7815 154.261 57.579C154.472 57.3766 154.633 57.1266 154.744 56.8291L156.498 57.1452C156.358 57.6617 156.106 58.1141 155.742 58.5025C155.383 58.8868 154.93 59.1864 154.385 59.4012C153.844 59.612 153.226 59.7173 152.532 59.7173ZM162.682 59.7173C161.79 59.7173 161.011 59.5128 160.346 59.1037C159.681 58.6947 159.164 58.1224 158.796 57.3869C158.429 56.6514 158.245 55.7919 158.245 54.8085C158.245 53.821 158.429 52.9574 158.796 52.2178C159.164 51.4781 159.681 50.9038 160.346 50.4947C161.011 50.0856 161.79 49.8811 162.682 49.8811C163.575 49.8811 164.354 50.0856 165.019 50.4947C165.684 50.9038 166.201 51.4781 166.569 52.2178C166.936 52.9574 167.12 53.821 167.12 54.8085C167.12 55.7919 166.936 56.6514 166.569 57.3869C166.201 58.1224 165.684 58.6947 165.019 59.1037C164.354 59.5128 163.575 59.7173 162.682 59.7173ZM162.689 58.1616C163.267 58.1616 163.746 58.0088 164.127 57.703C164.507 57.3972 164.788 56.9902 164.97 56.482C165.155 55.9738 165.248 55.4139 165.248 54.8023C165.248 54.1949 165.155 53.6371 164.97 53.1289C164.788 52.6165 164.507 52.2054 164.127 51.8955C163.746 51.5856 163.267 51.4306 162.689 51.4306C162.106 51.4306 161.623 51.5856 161.238 51.8955C160.858 52.2054 160.575 52.6165 160.389 53.1289C160.207 53.6371 160.116 54.1949 160.116 54.8023C160.116 55.4139 160.207 55.9738 160.389 56.482C160.575 56.9902 160.858 57.3972 161.238 57.703C161.623 58.0088 162.106 58.1616 162.689 58.1616ZM169.189 63.0953V50.0051H170.999V51.5484H171.154C171.261 51.35 171.416 51.1207 171.618 50.8604C171.821 50.6001 172.102 50.3728 172.461 50.1786C172.821 49.9803 173.296 49.8811 173.887 49.8811C174.655 49.8811 175.341 50.0753 175.945 50.4637C176.548 50.8521 177.021 51.412 177.364 52.1434C177.711 52.8747 177.885 53.7549 177.885 54.7837C177.885 55.8126 177.713 56.6948 177.37 57.4303C177.027 58.1616 176.556 58.7257 175.957 59.1223C175.358 59.5149 174.674 59.7111 173.905 59.7111C173.327 59.7111 172.854 59.614 172.486 59.4198C172.123 59.2256 171.837 58.9984 171.631 58.7381C171.424 58.4777 171.265 58.2464 171.154 58.0439H171.042V63.0953H169.189ZM171.005 54.7651C171.005 55.4345 171.102 56.0213 171.296 56.5254C171.49 57.0295 171.771 57.4241 172.139 57.7092C172.507 57.9902 172.957 58.1307 173.49 58.1307C174.044 58.1307 174.507 57.984 174.879 57.6906C175.25 57.3931 175.531 56.9902 175.721 56.482C175.916 55.9738 176.013 55.4015 176.013 54.7651C176.013 54.1371 175.918 53.5731 175.728 53.0731C175.542 52.5731 175.261 52.1785 174.885 51.8893C174.513 51.6 174.048 51.4554 173.49 51.4554C172.953 51.4554 172.499 51.5938 172.127 51.8707C171.759 52.1475 171.48 52.5339 171.29 53.0297C171.1 53.5255 171.005 54.104 171.005 54.7651ZM181.814 46.8317V59.5252H179.961V46.8317H181.814ZM188.41 59.7173C187.472 59.7173 186.665 59.5169 185.987 59.1161C185.313 58.7112 184.793 58.1431 184.425 57.4117C184.061 56.6762 183.88 55.8147 183.88 54.8271C183.88 53.852 184.061 52.9925 184.425 52.2488C184.793 51.505 185.305 50.9244 185.962 50.5071C186.623 50.0898 187.396 49.8811 188.28 49.8811C188.817 49.8811 189.338 49.97 189.842 50.1476C190.346 50.3253 190.799 50.6042 191.199 50.9844C191.6 51.3645 191.916 51.8583 192.148 52.4657C192.379 53.069 192.495 53.8024 192.495 54.666V55.323H184.927V53.9346H190.679C190.679 53.447 190.58 53.0152 190.381 52.6392C190.183 52.2591 189.904 51.9595 189.545 51.7405C189.189 51.5215 188.772 51.412 188.293 51.412C187.772 51.412 187.317 51.5401 186.929 51.7963C186.545 52.0483 186.247 52.3789 186.037 52.788C185.83 53.1929 185.727 53.633 185.727 54.1082V55.1928C185.727 55.8291 185.838 56.3704 186.061 56.8167C186.289 57.2629 186.605 57.6038 187.01 57.8394C187.415 58.0707 187.888 58.1864 188.429 58.1864C188.78 58.1864 189.1 58.1369 189.39 58.0377C189.679 57.9344 189.929 57.7815 190.14 57.579C190.35 57.3766 190.511 57.1266 190.623 56.8291L192.377 57.1452C192.237 57.6617 191.985 58.1141 191.621 58.5025C191.261 58.8868 190.809 59.1864 190.264 59.4012C189.722 59.612 189.105 59.7173 188.41 59.7173Z" fill="#2B2D42"/>
</svg>
