<svg viewBox="0 0 115 30" xmlns="http://www.w3.org/2000/svg">
  <title>Simpplr</title>
  <g fill="none" fill-rule="evenodd">
    <path fill="#1ABC9C" d="M111.54 25.2c-1.97,0 -3.46,-1.46 -3.46,-3.43l0 -0.05c0,-1.98 1.49,-3.44 3.46,-3.44 1.95,0 3.46,1.48 3.46,3.44l0 0.05c0,1.97 -1.5,3.43 -3.46,3.43zm-98.55 -15.06l0 4.5c0,0.1 -0.11,0.17 -0.2,0.12 -1.43,-0.88 -3.24,-1.67 -4.89,-2 -0.54,-0.1 -2.5,-0.42 -2.5,0.53l0 0.07c0,0.71 2.27,1.23 2.83,1.39 2.72,0.78 5.56,1.87 5.56,5.2l0 0.05c0,4.52 -4.03,5.84 -7.92,5.51 -2.04,-0.17 -4.04,-0.8 -5.8,-1.89 -0.04,-0.02 -0.07,-0.06 -0.07,-0.12l0 -4.55c0,-0.1 0.12,-0.17 0.21,-0.11 1.51,0.92 3.24,1.79 4.98,2.22 0.61,0.15 3.2,0.68 3.2,-0.49l0 -0.06c0,-0.68 -1.82,-1.07 -2.22,-1.18 -2.94,-0.83 -6.17,-1.67 -6.17,-5.37l0 -0.07c0,-4.16 3.75,-5.69 7.41,-5.47 1.89,0.12 3.86,0.66 5.51,1.6 0.04,0.02 0.07,0.07 0.07,0.12zm90.23 9.86l0 5.07c0,0.07 -0.06,0.13 -0.13,0.13l-5.69 0c-0.08,0 -0.14,-0.06 -0.14,-0.13l0 -14.98c0,-0.06 0.04,-0.12 0.11,-0.13l5.68 -1.22c0.09,-0.02 0.17,0.04 0.17,0.13l0 2.63c1.13,-2.26 2.54,-2.99 4.99,-3.04 0.08,0 0.14,0.06 0.14,0.13l0 5.99c0,0.08 -0.06,0.14 -0.14,0.14 -3.64,0 -4.99,1.72 -4.99,5.28zm-7.98 5.2l-5.66 0c-0.07,0 -0.14,-0.06 -0.14,-0.13l0 -20.66c0,-0.06 0.05,-0.12 0.11,-0.13l5.66 -1.21c0.08,-0.02 0.17,0.04 0.17,0.13l0 21.87c0,0.07 -0.06,0.13 -0.14,0.13zm-35.25 -4.67c1.97,0 3.19,-1.69 3.19,-3.55l0 -0.06c0,-1.85 -1.23,-3.55 -3.19,-3.55 -1.97,0 -3.19,1.68 -3.19,3.55l0 0.06c0,1.86 1.22,3.55 3.19,3.55zm-3.07 2.92l0 0 0 5.19c0,0.06 -0.04,0.11 -0.11,0.13l-5.68 1.21c-0.09,0.03 -0.17,-0.04 -0.17,-0.13l0 -20.99c0,-0.07 0.05,-0.13 0.13,-0.13l5.69 0c0.08,0 0.14,0.06 0.14,0.13l0 1.79c1.31,-1.5 2.74,-2.28 4.78,-2.28 4.71,0 7.32,4.18 7.32,8.52l0 0.06c0,4.33 -2.55,8.61 -7.29,8.61 -1.97,0 -3.49,-0.68 -4.81,-2.11zm22.24 -2.92c1.97,0 3.19,-1.69 3.19,-3.55l0 -0.06c0,-1.85 -1.23,-3.55 -3.19,-3.55 -1.97,0 -3.19,1.68 -3.19,3.55l0 0.06c0,1.86 1.22,3.55 3.19,3.55zm-3.07 2.92l0 0 0 5.19c0,0.06 -0.04,0.11 -0.1,0.13l-5.69 1.21c-0.09,0.03 -0.17,-0.04 -0.17,-0.13l0 -20.99c0,-0.07 0.06,-0.13 0.13,-0.13l5.7 0c0.07,0 0.13,0.06 0.13,0.13l0 1.79c1.31,-1.5 2.75,-2.28 4.78,-2.28 4.71,0 7.33,4.18 7.33,8.52l0 0.06c0,4.33 -2.56,8.61 -7.3,8.61 -1.96,0 -3.49,-0.68 -4.81,-2.11zm-47.32 1.75l-5.69 0c-0.08,0 -0.14,-0.06 -0.14,-0.13l0 -14.99c0,-0.06 0.05,-0.12 0.11,-0.13l5.68 -1.21c0.09,-0.03 0.18,0.04 0.18,0.13l0 1.82c1.22,-1.45 2.74,-2.32 4.69,-2.32 1.95,0 3.71,0.79 4.7,2.54 1.47,-1.65 3.15,-2.54 5.39,-2.54 3.75,0 5.68,2.46 5.68,6.06l0 10.64c0,0.07 -0.06,0.13 -0.13,0.13l-5.7 0c-0.07,0 -0.13,-0.06 -0.13,-0.13l0 -8.81c0,-1.35 -0.56,-2.59 -2.08,-2.59 -1.53,0 -2.2,1.2 -2.2,2.59l0 8.81c0,0.07 -0.07,0.13 -0.14,0.13l-5.66 0c-0.08,0 -0.14,-0.06 -0.14,-0.13l0 -8.81c0,-1.36 -0.59,-2.59 -2.11,-2.59 -1.52,0 -2.17,1.21 -2.17,2.59l0 8.81c0,0.07 -0.06,0.13 -0.14,0.13zm-10.53 -18.27c-1.96,0 -3.45,-1.46 -3.45,-3.43l0 -0.05c0,-1.98 1.49,-3.44 3.45,-3.44 1.96,0 3.47,1.48 3.47,3.44l0 0.05c0,1.97 -1.5,3.43 -3.47,3.43zm2.97 1.94l0 0 0 16.2c0,0.07 -0.06,0.13 -0.13,0.13l-5.67 0c-0.07,0 -0.13,-0.06 -0.13,-0.13l0 -14.99c0,-0.07 0.04,-0.12 0.11,-0.14l5.65 -1.21c0.09,-0.02 0.17,0.05 0.17,0.14z"></path>
  </g>
  </svg>